<?xml version="1.0" standalone="no"?><!-- Generator: Gravit.io --><svg xmlns="http://www.w3.org/2000/svg" xmlns:xlink="http://www.w3.org/1999/xlink" style="isolation:isolate" viewBox="0 0 20 20" width="20" height="20"><g><path d=" M 3 0 L 17 0 C 18.656 0 20 1.344 20 3 L 20 17 C 20 18.656 18.656 20 17 20 L 3 20 C 1.344 20 0 18.656 0 17 L 0 3 C 0 1.344 1.344 0 3 0 Z " fill="rgb(90,21,28)"/><g><path d=" M 4.923 7.231 L 4.923 16.462 C 4.923 16.969 5.338 17.385 5.846 17.385 L 14.154 17.385 C 14.662 17.385 15.077 16.969 15.077 16.462 L 15.077 7.231 L 4.923 7.231 Z  M 7.692 15.538 L 6.769 15.538 L 6.769 9.077 L 7.692 9.077 L 7.692 15.538 Z  M 9.538 15.538 L 8.615 15.538 L 8.615 9.077 L 9.538 9.077 L 9.538 15.538 Z  M 11.385 15.538 L 10.462 15.538 L 10.462 9.077 L 11.385 9.077 L 11.385 15.538 Z  M 13.231 15.538 L 12.308 15.538 L 12.308 9.077 L 13.231 9.077 L 13.231 15.538 Z " fill="rgb(255,255,255)"/><path d=" M 15.308 4.462 L 12.308 4.462 L 12.308 3.308 C 12.308 2.927 11.996 2.615 11.615 2.615 L 8.385 2.615 C 8.004 2.615 7.692 2.927 7.692 3.308 L 7.692 4.462 L 4.692 4.462 C 4.311 4.462 4 4.773 4 5.154 L 4 6.308 L 16 6.308 L 16 5.154 C 16 4.773 15.688 4.462 15.308 4.462 Z  M 11.385 4.462 L 8.615 4.462 L 8.615 3.55 L 11.385 3.55 L 11.385 4.462 Z " fill="rgb(255,255,255)"/></g></g></svg>