<?xml version="1.0" standalone="no"?><!-- Generator: Gravit.io --><svg xmlns="http://www.w3.org/2000/svg" xmlns:xlink="http://www.w3.org/1999/xlink" style="isolation:isolate" viewBox="0 0 20 20" width="20" height="20"><path d="M 3 0 L 17 0 C 18.656 0 20 1.344 20 3 L 20 17 C 20 18.656 18.656 20 17 20 L 3 20 C 1.344 20 0 18.656 0 17 L 0 3 C 0 1.344 1.344 0 3 0 Z" style="stroke:none;fill:#333333;stroke-miterlimit:10;"/><path d=" M 15 9 L 10 14 L 5 9 L 8.4 9 L 8.4 2.6 L 11.6 2.6 L 11.6 9 L 15 9 Z  M 4 14.599 L 4 17.385 L 16 17.385 L 16 14.599 L 4 14.599 Z " fill="rgb(255,255,255)"/></svg>