<?xml version="1.0" standalone="no"?><!-- Generator: Gravit.io --><svg xmlns="http://www.w3.org/2000/svg" xmlns:xlink="http://www.w3.org/1999/xlink" style="isolation:isolate" viewBox="0 0 28 32" width="28" height="32"><g><path d=" M 21.22 12 L 16.992 12 L 14 16.407 L 11.008 12 L 6.78 12 L 11.848 19.577 L 6.13 28 L 14 28 L 14 25.138 L 12.433 25.138 L 14 22.794 L 17.481 27.999 L 21.87 27.999 L 16.152 19.576 L 21.22 11.999 L 21.22 12 Z " fill="rgb(44,153,59)"/><path d=" M 26.681 7.159 C 25.987 6.212 25.019 5.106 23.957 4.043 C 22.895 2.98 21.788 2.013 20.841 1.319 C 19.229 0.137 18.448 0 18 0 L 2.5 0 C 1.122 0 0 1.121 0 2.5 L 0 29.5 C 0 30.878 1.121 32 2.5 32 L 25.5 32 C 26.878 32 28 30.878 28 29.5 L 28 10 C 28 9.552 27.863 8.77 26.681 7.159 L 26.681 7.159 Z  M 22.543 5.457 C 23.502 6.416 24.255 7.282 24.811 8 L 20 8 L 20 3.189 C 20.718 3.745 21.584 4.498 22.543 5.457 L 22.543 5.457 Z  M 26 29.5 C 26 29.771 25.771 30 25.5 30 L 2.5 30 C 2.229 30 2 29.771 2 29.5 L 2 2.5 C 2 2.229 2.229 2 2.5 2 C 2.5 2 17.999 2 18 2 L 18 9 C 18 9.552 18.448 10 19 10 L 26 10 L 26 29.5 Z " fill="rgb(44,153,59)"/></g></svg>