<?xml version="1.0" standalone="no"?><!-- Generator: Gravit.io --><svg xmlns="http://www.w3.org/2000/svg" xmlns:xlink="http://www.w3.org/1999/xlink" style="isolation:isolate" viewBox="0 0 20 20" width="20" height="20"><g><path d=" M 3 0 L 17 0 C 18.656 0 20 1.344 20 3 L 20 17 C 20 18.656 18.656 20 17 20 L 3 20 C 1.344 20 0 18.656 0 17 L 0 3 C 0 1.344 1.344 0 3 0 Z " fill="rgb(90,21,28)"/><g><path d=" M 9.139 11.486 C 8.979 11.486 8.819 11.425 8.697 11.303 C 7.556 10.161 7.556 8.303 8.697 7.161 L 11.002 4.856 C 11.555 4.303 12.291 3.998 13.073 3.998 C 13.855 3.998 14.591 4.303 15.144 4.856 C 16.285 5.998 16.285 7.856 15.144 8.998 L 14.091 10.051 C 13.847 10.295 13.452 10.295 13.208 10.051 C 12.964 9.808 12.964 9.412 13.208 9.169 L 14.261 8.116 C 14.916 7.46 14.916 6.394 14.261 5.739 C 13.944 5.422 13.521 5.246 13.073 5.246 C 12.624 5.246 12.202 5.422 11.884 5.739 L 9.58 8.043 C 8.925 8.699 8.925 9.765 9.58 10.42 C 9.823 10.664 9.823 11.059 9.58 11.303 C 9.458 11.425 9.298 11.486 9.138 11.486 L 9.139 11.486 Z " fill="rgb(255,255,255)"/><path d=" M 6.927 16.002 C 6.145 16.002 5.409 15.697 4.856 15.144 C 3.715 14.002 3.715 12.144 4.856 11.002 L 5.909 9.949 C 6.153 9.705 6.548 9.705 6.792 9.949 C 7.036 10.192 7.036 10.588 6.792 10.831 L 5.739 11.884 C 5.084 12.54 5.084 13.606 5.739 14.261 C 6.056 14.578 6.478 14.754 6.927 14.754 C 7.377 14.754 7.798 14.578 8.116 14.261 L 10.42 11.957 C 11.075 11.301 11.075 10.235 10.42 9.58 C 10.177 9.336 10.177 8.941 10.42 8.697 C 10.664 8.454 11.059 8.454 11.303 8.697 C 12.444 9.839 12.444 11.697 11.303 12.839 L 8.998 15.144 C 8.445 15.697 7.709 16.002 6.927 16.002 Z " fill="rgb(255,255,255)"/></g></g></svg>