<?xml version="1.0" encoding="UTF-8" standalone="no"?><!DOCTYPE svg PUBLIC "-//W3C//DTD SVG 1.1//EN" "http://www.w3.org/Graphics/SVG/1.1/DTD/svg11.dtd"><svg width="100%" height="100%" viewBox="0 0 179 25" version="1.1" xmlns="http://www.w3.org/2000/svg" xmlns:xlink="http://www.w3.org/1999/xlink" xml:space="preserve" xmlns:serif="http://www.serif.com/" style="fill-rule:evenodd;clip-rule:evenodd;stroke-linejoin:round;stroke-miterlimit:1.41421;"><text id="CloudShare" x="48.88px" y="20.2px" style="font-family:'Orbitron-Regular', 'Orbitron';font-size:20px;fill:#fff;">Cl<tspan x="71.16px 84.54px 98.64px 111.98px " y="20.2px 20.2px 20.2px 20.2px ">oudS</tspan>hare</text><path id="Cloud" d="M27.755,25.153l5.12,0c3.925,0 7.125,-3.216 7.125,-7.162c0,-3.659 -2.793,-6.568 -6.325,-6.986c0.012,-0.195 0.05,-0.376 0.05,-0.578c0,-5.829 -4.725,-10.58 -10.525,-10.58l0,0.001c-4.172,0 -7.703,2.509 -9.4,6.056c-0.903,-0.625 -1.95,-1.08 -3.125,-1.08c-2.981,0 -5.36,2.372 -5.525,5.327c-2.982,1.08 -5.15,3.876 -5.15,7.237c0,4.285 3.462,7.765 7.725,7.765l6.153,0l0,-1.608l-6.153,0c-1.626,0.005 -3.187,-0.642 -4.337,-1.798c-1.15,-1.156 -1.794,-2.725 -1.788,-4.359c-0.002,-2.776 1.839,-5.213 4.5,-5.956l0.6,-0.15l-0.025,-0.654c-0.003,-0.112 0,-0.169 0,-0.175c0,-2.234 1.778,-4.021 4,-4.021c1.112,0 2.125,0.448 2.85,1.181l0.875,0.905l0.424,-1.18c1.26,-3.418 4.529,-5.881 8.376,-5.881l0,-0.001c2.367,-0.003 4.639,0.942 6.313,2.625c1.675,1.683 2.614,3.966 2.612,6.346c0,0.369 -0.028,0.729 -0.074,1.106l-0.126,0.904l0.95,0c1.466,-0.002 2.874,0.582 3.91,1.625c1.037,1.042 1.618,2.456 1.615,3.93c0.002,1.474 -0.579,2.888 -1.616,3.929c-1.036,1.043 -2.443,1.626 -3.909,1.624l-5.12,0l0,-0.025l-4.408,0c-1.083,0 -1.959,-0.73 -1.959,-1.632l0,-2.041l1.469,0l-2.449,-2.857l-2.449,2.857l1.47,0l0,2.041c0,1.792 1.768,3.265 3.918,3.265l4.408,0Z" style="fill:#fff;fill-rule:nonzero;"/></svg>