<?xml version="1.0" standalone="no"?><!-- Generator: Gravit.io --><svg xmlns="http://www.w3.org/2000/svg" xmlns:xlink="http://www.w3.org/1999/xlink" style="isolation:isolate" viewBox="0 0 179.2 25.3" width="179.2" height="25.3"><path d=" M 64.36 5.953 L 64.36 7.573 L 52.4 7.573 L 52.4 7.573 Q 52.08 7.573 51.85 7.803 L 51.85 7.803 L 51.85 7.803 Q 51.62 8.033 51.62 8.353 L 51.62 8.353 L 51.62 17.953 L 51.62 17.953 Q 51.62 18.273 51.85 18.503 L 51.85 18.503 L 51.85 18.503 Q 52.08 18.733 52.4 18.733 L 52.4 18.733 L 64.36 18.733 L 64.36 20.353 L 52.4 20.353 L 52.4 20.353 Q 51.4 20.353 50.7 19.653 L 50.7 19.653 L 50.7 19.653 Q 50 18.953 50 17.953 L 50 17.953 L 50 8.353 L 50 8.353 Q 50 7.353 50.7 6.653 L 50.7 6.653 L 50.7 6.653 Q 51.4 5.953 52.4 5.953 L 52.4 5.953 L 64.36 5.953 Z  M 66.36 17.933 L 66.36 4.953 L 68 4.953 L 68 17.933 L 68 17.933 Q 68 18.253 68.23 18.483 L 68.23 18.483 L 68.23 18.483 Q 68.46 18.713 68.78 18.713 L 68.78 18.713 L 70.74 18.713 L 70.74 20.353 L 68.78 20.353 L 68.78 20.353 Q 67.78 20.353 67.07 19.643 L 67.07 19.643 L 67.07 19.643 Q 66.36 18.933 66.36 17.933 L 66.36 17.933 Z  M 74.8 8.753 L 74.8 8.753 L 81.76 8.753 L 81.76 8.753 Q 82.78 8.753 83.49 9.463 L 83.49 9.463 L 83.49 9.463 Q 84.2 10.173 84.2 11.173 L 84.2 11.173 L 84.2 17.933 L 84.2 17.933 Q 84.2 18.933 83.49 19.643 L 83.49 19.643 L 83.49 19.643 Q 82.78 20.353 81.76 20.353 L 81.76 20.353 L 74.8 20.353 L 74.8 20.353 Q 73.8 20.353 73.09 19.643 L 73.09 19.643 L 73.09 19.643 Q 72.38 18.933 72.38 17.933 L 72.38 17.933 L 72.38 11.173 L 72.38 11.173 Q 72.38 10.173 73.09 9.463 L 73.09 9.463 L 73.09 9.463 Q 73.8 8.753 74.8 8.753 Z  M 81.76 10.393 L 81.76 10.393 L 74.8 10.393 L 74.8 10.393 Q 74.48 10.393 74.25 10.623 L 74.25 10.623 L 74.25 10.623 Q 74.02 10.853 74.02 11.173 L 74.02 11.173 L 74.02 17.933 L 74.02 17.933 Q 74.02 18.253 74.25 18.483 L 74.25 18.483 L 74.25 18.483 Q 74.48 18.713 74.8 18.713 L 74.8 18.713 L 81.76 18.713 L 81.76 18.713 Q 82.08 18.713 82.31 18.483 L 82.31 18.483 L 82.31 18.483 Q 82.54 18.253 82.54 17.933 L 82.54 17.933 L 82.54 11.173 L 82.54 11.173 Q 82.54 10.853 82.31 10.623 L 82.31 10.623 L 82.31 10.623 Q 82.08 10.393 81.76 10.393 Z  M 96.44 17.933 L 96.44 8.753 L 98.08 8.753 L 98.08 17.933 L 98.08 17.933 Q 98.08 18.933 97.37 19.643 L 97.37 19.643 L 97.37 19.643 Q 96.66 20.353 95.64 20.353 L 95.64 20.353 L 88.68 20.353 L 88.68 20.353 Q 87.68 20.353 86.97 19.643 L 86.97 19.643 L 86.97 19.643 Q 86.26 18.933 86.26 17.933 L 86.26 17.933 L 86.26 8.753 L 87.9 8.753 L 87.9 17.933 L 87.9 17.933 Q 87.9 18.253 88.13 18.483 L 88.13 18.483 L 88.13 18.483 Q 88.36 18.713 88.68 18.713 L 88.68 18.713 L 95.64 18.713 L 95.64 18.713 Q 95.96 18.713 96.2 18.483 L 96.2 18.483 L 96.2 18.483 Q 96.44 18.253 96.44 17.933 L 96.44 17.933 Z  M 109.74 8.753 L 109.74 4.953 L 111.38 4.953 L 111.38 20.353 L 102 20.353 L 102 20.353 Q 100.98 20.353 100.27 19.643 L 100.27 19.643 L 100.27 19.643 Q 99.56 18.933 99.56 17.933 L 99.56 17.933 L 99.56 11.173 L 99.56 11.173 Q 99.56 10.173 100.27 9.463 L 100.27 9.463 L 100.27 9.463 Q 100.98 8.753 102 8.753 L 102 8.753 L 109.74 8.753 Z  M 102 18.713 L 102 18.713 L 108.96 18.713 L 108.96 18.713 Q 109.28 18.713 109.51 18.483 L 109.51 18.483 L 109.51 18.483 Q 109.74 18.253 109.74 17.933 L 109.74 17.933 L 109.74 11.173 L 109.74 11.173 Q 109.74 10.853 109.51 10.623 L 109.51 10.623 L 109.51 10.623 Q 109.28 10.393 108.96 10.393 L 108.96 10.393 L 102 10.393 L 102 10.393 Q 101.68 10.393 101.45 10.623 L 101.45 10.623 L 101.45 10.623 Q 101.22 10.853 101.22 11.173 L 101.22 11.173 L 101.22 17.933 L 101.22 17.933 Q 101.22 18.253 101.45 18.483 L 101.45 18.483 L 101.45 18.483 Q 101.68 18.713 102 18.713 Z  M 127.86 8.353 L 127.86 8.353 L 127.86 8.913 L 126.24 8.913 L 126.24 8.353 L 126.24 8.353 Q 126.24 8.033 126.01 7.803 L 126.01 7.803 L 126.01 7.803 Q 125.78 7.573 125.46 7.573 L 125.46 7.573 L 115.86 7.573 L 115.86 7.573 Q 115.54 7.573 115.31 7.803 L 115.31 7.803 L 115.31 7.803 Q 115.08 8.033 115.08 8.353 L 115.08 8.353 L 115.08 11.573 L 115.08 11.573 Q 115.08 11.893 115.31 12.113 L 115.31 12.113 L 115.31 12.113 Q 115.54 12.333 115.86 12.333 L 115.86 12.333 L 125.46 12.333 L 125.46 12.333 Q 126.46 12.333 127.16 13.033 L 127.16 13.033 L 127.16 13.033 Q 127.86 13.733 127.86 14.733 L 127.86 14.733 L 127.86 17.953 L 127.86 17.953 Q 127.86 18.953 127.16 19.653 L 127.16 19.653 L 127.16 19.653 Q 126.46 20.353 125.46 20.353 L 125.46 20.353 L 115.86 20.353 L 115.86 20.353 Q 114.86 20.353 114.16 19.653 L 114.16 19.653 L 114.16 19.653 Q 113.46 18.953 113.46 17.953 L 113.46 17.953 L 113.46 17.393 L 115.08 17.393 L 115.08 17.953 L 115.08 17.953 Q 115.08 18.273 115.31 18.503 L 115.31 18.503 L 115.31 18.503 Q 115.54 18.733 115.86 18.733 L 115.86 18.733 L 125.46 18.733 L 125.46 18.733 Q 125.78 18.733 126.01 18.503 L 126.01 18.503 L 126.01 18.503 Q 126.24 18.273 126.24 17.953 L 126.24 17.953 L 126.24 14.733 L 126.24 14.733 Q 126.24 14.413 126.01 14.193 L 126.01 14.193 L 126.01 14.193 Q 125.78 13.973 125.46 13.973 L 125.46 13.973 L 115.86 13.973 L 115.86 13.973 Q 114.86 13.973 114.16 13.273 L 114.16 13.273 L 114.16 13.273 Q 113.46 12.573 113.46 11.573 L 113.46 11.573 L 113.46 8.353 L 113.46 8.353 Q 113.46 7.353 114.16 6.653 L 114.16 6.653 L 114.16 6.653 Q 114.86 5.953 115.86 5.953 L 115.86 5.953 L 125.46 5.953 L 125.46 5.953 Q 126.46 5.953 127.16 6.653 L 127.16 6.653 L 127.16 6.653 Q 127.86 7.353 127.86 8.353 Z  M 131.6 8.753 L 139.36 8.753 L 139.36 8.753 Q 140.36 8.753 141.07 9.463 L 141.07 9.463 L 141.07 9.463 Q 141.78 10.173 141.78 11.173 L 141.78 11.173 L 141.78 20.353 L 140.14 20.353 L 140.14 11.173 L 140.14 11.173 Q 140.14 10.853 139.91 10.623 L 139.91 10.623 L 139.91 10.623 Q 139.68 10.393 139.36 10.393 L 139.36 10.393 L 132.4 10.393 L 132.4 10.393 Q 132.08 10.393 131.84 10.623 L 131.84 10.623 L 131.84 10.623 Q 131.6 10.853 131.6 11.173 L 131.6 11.173 L 131.6 20.353 L 129.96 20.353 L 129.96 4.953 L 131.6 4.953 L 131.6 8.753 Z  M 143.28 8.753 L 152.66 8.753 L 152.66 8.753 Q 153.68 8.753 154.39 9.463 L 154.39 9.463 L 154.39 9.463 Q 155.1 10.173 155.1 11.173 L 155.1 11.173 L 155.1 20.353 L 145.7 20.353 L 145.7 20.353 Q 144.7 20.353 143.99 19.643 L 143.99 19.643 L 143.99 19.643 Q 143.28 18.933 143.28 17.933 L 143.28 17.933 L 143.28 13.733 L 153.44 13.733 L 153.44 11.173 L 153.44 11.173 Q 153.44 10.853 153.21 10.623 L 153.21 10.623 L 153.21 10.623 Q 152.98 10.393 152.66 10.393 L 152.66 10.393 L 143.28 10.393 L 143.28 8.753 Z  M 145.7 18.713 L 153.44 18.713 L 153.44 15.373 L 144.92 15.373 L 144.92 17.933 L 144.92 17.933 Q 144.92 18.253 145.15 18.483 L 145.15 18.483 L 145.15 18.483 Q 145.38 18.713 145.7 18.713 L 145.7 18.713 Z  M 159.58 8.753 L 159.58 8.753 L 166.1 8.753 L 166.1 10.393 L 159.58 10.393 L 159.58 10.393 Q 159.26 10.393 159.03 10.623 L 159.03 10.623 L 159.03 10.623 Q 158.8 10.853 158.8 11.173 L 158.8 11.173 L 158.8 20.353 L 157.16 20.353 L 157.16 11.173 L 157.16 11.173 Q 157.16 10.173 157.87 9.463 L 157.87 9.463 L 157.87 9.463 Q 158.58 8.753 159.58 8.753 Z  M 169.8 8.753 L 176.76 8.753 L 176.76 8.753 Q 177.78 8.753 178.49 9.463 L 178.49 9.463 L 178.49 9.463 Q 179.2 10.173 179.2 11.173 L 179.2 11.173 L 179.2 15.373 L 169.02 15.373 L 169.02 17.933 L 169.02 17.933 Q 169.02 18.253 169.25 18.483 L 169.25 18.483 L 169.25 18.483 Q 169.48 18.713 169.8 18.713 L 169.8 18.713 L 179.2 18.713 L 179.2 20.353 L 169.8 20.353 L 169.8 20.353 Q 168.8 20.353 168.09 19.643 L 168.09 19.643 L 168.09 19.643 Q 167.38 18.933 167.38 17.933 L 167.38 17.933 L 167.38 11.173 L 167.38 11.173 Q 167.38 10.173 168.09 9.463 L 168.09 9.463 L 168.09 9.463 Q 168.8 8.753 169.8 8.753 L 169.8 8.753 Z  M 169.02 11.173 L 169.02 13.733 L 177.54 13.733 L 177.54 11.173 L 177.54 11.173 Q 177.54 10.853 177.31 10.623 L 177.31 10.623 L 177.31 10.623 Q 177.08 10.393 176.76 10.393 L 176.76 10.393 L 169.8 10.393 L 169.8 10.393 Q 169.48 10.393 169.25 10.623 L 169.25 10.623 L 169.25 10.623 Q 169.02 10.853 169.02 11.173 L 169.02 11.173 Z " fill-rule="evenodd" fill="rgb(255,255,255)"/><path d=" M 27.755 25.306 L 32.875 25.306 C 36.8 25.306 40 22.09 40 18.144 C 40 14.485 37.207 11.576 33.675 11.158 C 33.687 10.963 33.725 10.782 33.725 10.58 C 33.725 4.751 29 0 23.2 0 L 23.2 0.001 C 19.028 0.001 15.497 2.51 13.8 6.057 C 12.897 5.432 11.85 4.977 10.675 4.977 C 7.694 4.977 5.315 7.349 5.15 10.304 C 2.168 11.384 0 14.18 0 17.541 C 0 21.826 3.462 25.306 7.725 25.306 L 13.878 25.306 L 13.878 23.698 L 7.725 23.698 C 6.099 23.703 4.538 23.056 3.388 21.9 C 2.238 20.744 1.594 19.175 1.6 17.541 C 1.598 14.765 3.439 12.328 6.1 11.585 L 6.7 11.435 L 6.675 10.781 C 6.672 10.669 6.675 10.612 6.675 10.606 C 6.675 8.372 8.453 6.585 10.675 6.585 C 11.787 6.585 12.8 7.033 13.525 7.766 L 14.4 8.671 L 14.824 7.491 C 16.084 4.073 19.353 1.61 23.2 1.61 L 23.2 1.609 C 25.567 1.606 27.839 2.551 29.513 4.234 C 31.188 5.917 32.127 8.2 32.125 10.58 C 32.125 10.949 32.097 11.309 32.051 11.686 L 31.925 12.59 L 32.875 12.59 C 34.341 12.588 35.749 13.172 36.785 14.215 C 37.822 15.257 38.403 16.671 38.4 18.145 C 38.402 19.619 37.821 21.033 36.784 22.074 C 35.748 23.117 34.341 23.7 32.875 23.698 L 27.755 23.698 L 27.755 23.673 L 23.347 23.673 C 22.264 23.673 21.388 22.943 21.388 22.041 L 21.388 20 L 22.857 20 L 20.408 17.143 L 17.959 20 L 19.429 20 L 19.429 22.041 C 19.429 23.833 21.197 25.306 23.347 25.306 L 27.755 25.306 Z " fill="rgb(255,255,255)"/></svg>