<?xml version="1.0" standalone="no"?><!-- Generator: Gravit.io --><svg xmlns="http://www.w3.org/2000/svg" xmlns:xlink="http://www.w3.org/1999/xlink" style="isolation:isolate" viewBox="0 0 20 20" width="20" height="20"><g><path d=" M 3 0 L 17 0 C 18.656 0 20 1.344 20 3 L 20 17 C 20 18.656 18.656 20 17 20 L 3 20 C 1.344 20 0 18.656 0 17 L 0 3 C 0 1.344 1.344 0 3 0 Z " fill="rgb(25,88,45)"/><path d=" M 14.125 4 C 15.161 4 16 4.839 16 5.875 C 16 6.297 15.861 6.687 15.625 7 L 14.875 7.75 L 12.25 5.125 L 13 4.375 C 13.314 4.14 13.703 4 14.125 4 Z  M 4.75 12.625 L 4 16 L 7.375 15.25 L 14.313 8.313 L 11.688 5.688 L 4.75 12.625 Z  M 12.386 8.261 L 7.136 13.511 L 6.489 12.864 L 11.739 7.614 L 12.386 8.261 Z " fill="rgb(255,255,255)"/></g></svg>