<?xml version="1.0" standalone="no"?>
<!DOCTYPE svg PUBLIC "-//W3C//DTD SVG 20010904//EN"
 "http://www.w3.org/TR/2001/REC-SVG-20010904/DTD/svg10.dtd">
<svg version="1.0" xmlns="http://www.w3.org/2000/svg"
 width="1280.000000pt" height="1280.000000pt" viewBox="0 0 1280.000000 1280.000000"
 preserveAspectRatio="xMidYMid meet">
<metadata>
Created by potrace 1.11, written by Peter Selinger 2001-2013
</metadata>
<g transform="translate(0.000000,1280.000000) scale(0.100000,-0.100000)"
fill="#000000" stroke="none">
<path d="M7165 10442 c-2 -3 -21 -6 -42 -8 -84 -6 -151 -14 -200 -23 -29 -6
-72 -13 -97 -16 -24 -4 -71 -13 -103 -21 -32 -8 -71 -17 -88 -20 -37 -7 -272
-79 -311 -95 -16 -7 -31 -13 -34 -13 -13 -3 -85 -32 -185 -76 -51 -22 -225
-109 -280 -140 -80 -46 -190 -115 -193 -122 -2 -4 -8 -8 -13 -8 -9 0 -184
-124 -229 -163 -14 -12 -52 -44 -85 -71 -63 -52 -186 -168 -239 -225 -17 -18
-53 -57 -81 -85 -27 -29 -63 -70 -80 -91 -16 -22 -38 -48 -48 -60 -10 -11 -24
-27 -31 -35 -7 -8 -42 -55 -77 -105 -35 -49 -66 -92 -70 -95 -12 -9 -186 -305
-215 -365 -15 -33 -32 -61 -36 -63 -4 -2 -8 -10 -8 -18 0 -12 -4 -12 -22 -2
-13 7 -25 16 -28 19 -8 9 -162 101 -195 116 -16 7 -37 18 -45 23 -35 22 -315
130 -315 121 0 0 -18 4 -40 10 -39 9 -57 13 -112 25 -87 17 -299 23 -428 11
-38 -3 -70 -6 -70 -7 0 -2 -34 -8 -83 -15 -23 -3 -52 -9 -65 -14 -12 -5 -24
-9 -27 -9 -17 0 -108 -27 -180 -54 -104 -38 -199 -84 -303 -149 -43 -27 -82
-49 -87 -49 -5 0 -10 -4 -12 -8 -1 -4 -32 -30 -68 -57 -36 -28 -108 -93 -160
-145 -92 -92 -220 -248 -220 -268 0 -6 -3 -12 -8 -14 -19 -8 -172 -291 -172
-318 0 -4 -7 -24 -15 -44 -8 -20 -16 -39 -16 -43 -1 -5 -5 -16 -11 -26 -5 -10
-11 -26 -13 -35 -2 -9 -11 -46 -20 -82 -9 -36 -19 -74 -21 -85 -2 -11 -6 -31
-9 -45 -3 -14 -8 -47 -11 -75 -4 -27 -8 -57 -10 -65 -1 -8 -3 -31 -3 -51 -1
-37 -1 -37 -88 -72 -115 -46 -222 -97 -229 -108 -3 -5 -14 -9 -25 -9 -10 0
-19 -4 -19 -9 0 -5 -10 -13 -22 -17 -13 -4 -34 -15 -48 -24 -14 -9 -77 -51
-140 -93 -63 -42 -126 -87 -140 -99 -14 -13 -48 -41 -75 -63 -70 -57 -231
-218 -293 -295 -29 -36 -58 -72 -66 -80 -25 -28 -146 -208 -146 -218 0 -6 -4
-12 -8 -14 -19 -8 -148 -269 -194 -393 -54 -145 -107 -339 -124 -455 -2 -19
-6 -44 -9 -55 -31 -155 -25 -600 10 -765 3 -14 7 -36 10 -50 17 -93 29 -144
47 -205 11 -38 21 -74 23 -80 4 -17 16 -49 26 -67 5 -10 9 -25 9 -33 0 -8 4
-23 9 -33 5 -9 13 -28 19 -42 52 -126 115 -253 172 -346 22 -36 40 -68 40 -71
0 -2 15 -24 33 -48 17 -24 43 -60 57 -80 14 -20 30 -42 35 -48 6 -7 32 -39 60
-72 27 -33 54 -65 60 -71 5 -6 24 -26 40 -45 17 -19 45 -46 64 -61 18 -16 30
-28 26 -28 -4 0 8 -12 27 -27 18 -15 35 -30 38 -33 14 -15 90 -78 119 -100 19
-14 40 -30 46 -37 15 -15 178 -123 236 -157 24 -15 100 -53 169 -87 69 -33
133 -64 142 -69 10 -6 23 -10 29 -10 6 0 25 -6 42 -14 32 -14 148 -53 183 -61
10 -2 53 -13 94 -25 41 -11 93 -22 115 -25 22 -3 47 -7 55 -10 8 -2 40 -7 70
-11 30 -3 69 -9 85 -12 17 -3 524 -7 1128 -9 893 -3 1097 -1 1098 9 4 82 -1
491 -6 496 -4 4 -478 7 -1053 8 -938 1 -1118 4 -1195 20 -12 3 -38 6 -58 9
-71 8 -254 59 -379 107 -110 41 -379 190 -436 241 -7 7 -34 28 -60 47 -82 60
-324 307 -324 330 0 5 -3 10 -8 10 -4 0 -18 18 -32 40 -14 22 -28 40 -32 40
-5 0 -8 7 -8 15 0 8 -4 15 -10 15 -5 0 -10 4 -10 10 0 5 -17 36 -37 67 -75
118 -212 440 -197 464 3 5 1 9 -4 9 -5 0 -9 6 -10 13 0 6 -7 39 -16 72 -8 33
-17 80 -21 105 -4 24 -9 48 -11 52 -16 25 -23 402 -10 513 25 217 99 482 180
640 14 28 26 53 26 56 0 21 154 255 230 350 42 53 232 243 280 281 73 57 158
118 164 118 4 0 12 5 19 11 7 5 49 32 94 59 152 89 385 176 575 215 47 10 52
20 49 96 -7 173 -2 312 14 399 15 88 23 118 46 190 21 68 121 280 142 302 7 7
24 30 38 51 31 44 96 123 122 146 10 9 41 37 69 64 28 26 85 70 127 97 42 28
81 53 86 58 52 38 294 126 380 137 28 4 53 9 57 11 3 2 48 7 100 10 51 3 99 7
106 9 6 2 12 1 12 -3 0 -4 26 -7 58 -8 180 -1 421 -76 592 -183 123 -77 215
-159 427 -382 45 -47 86 -83 90 -80 8 5 57 130 67 171 3 8 10 29 17 45 6 17
13 35 15 40 3 11 36 103 52 145 5 14 10 28 11 32 7 31 124 272 134 276 4 2 7
9 7 15 0 7 23 50 50 96 28 46 50 86 50 88 0 2 5 9 11 16 6 7 45 62 88 124 43
62 81 110 85 106 3 -3 6 -1 6 6 0 7 6 18 13 25 6 7 28 33 47 57 47 58 222 235
290 294 30 26 66 57 80 69 61 53 322 236 336 236 2 0 21 11 42 24 20 12 40 24
44 25 4 1 35 17 69 36 33 19 63 35 65 35 2 0 36 15 76 34 69 31 201 85 223 91
6 1 17 5 25 8 33 12 148 47 190 57 127 31 216 50 249 54 20 3 36 5 36 6 0 1
16 4 35 5 19 2 49 6 65 9 124 24 502 24 680 0 22 -2 54 -7 70 -9 17 -2 30 -4
30 -5 0 -1 18 -4 40 -6 22 -3 78 -14 125 -25 47 -11 93 -22 104 -24 41 -9 136
-38 231 -72 55 -19 110 -37 123 -40 12 -3 22 -9 22 -14 0 -5 5 -9 10 -9 6 0
26 -7 46 -15 19 -8 36 -14 39 -15 12 -2 223 -115 293 -157 74 -44 234 -154
258 -177 7 -6 24 -20 40 -31 88 -64 247 -214 355 -336 35 -40 72 -81 82 -91 9
-10 17 -21 17 -24 0 -3 17 -27 38 -53 121 -146 303 -460 368 -633 9 -24 20
-52 25 -63 29 -67 93 -263 104 -323 2 -10 4 -17 5 -17 2 0 6 -17 14 -55 3 -14
10 -45 16 -70 13 -59 31 -167 35 -205 2 -16 7 -64 11 -105 10 -94 11 -428 1
-535 -8 -77 -9 -93 -23 -180 -7 -50 -11 -75 -19 -147 l-7 -58 43 -1 c24 -1 49
0 54 1 27 6 348 -5 425 -14 116 -14 281 -55 404 -101 95 -35 279 -126 307
-151 8 -8 21 -14 27 -14 7 0 12 -4 12 -9 0 -5 8 -12 18 -15 10 -4 27 -14 38
-24 11 -10 27 -23 36 -28 63 -35 238 -209 341 -339 51 -63 137 -204 184 -300
44 -90 114 -279 127 -345 3 -14 12 -56 20 -95 23 -108 30 -188 30 -345 -1
-186 -11 -272 -50 -435 -3 -11 -7 -27 -9 -35 -2 -8 -4 -15 -5 -15 -1 0 -4 -8
-14 -50 -2 -11 -9 -33 -16 -50 -6 -16 -11 -31 -11 -33 1 -1 -5 -15 -13 -31 -9
-16 -12 -31 -9 -35 4 -3 1 -6 -5 -6 -7 0 -12 -5 -12 -12 0 -15 -92 -198 -120
-238 -94 -137 -126 -180 -176 -236 -32 -37 -77 -83 -98 -103 -21 -20 -46 -43
-55 -51 -36 -35 -121 -100 -191 -147 -81 -55 -270 -157 -270 -147 0 4 -6 2
-13 -4 -14 -12 -165 -69 -200 -76 -12 -2 -49 -12 -82 -21 -33 -9 -76 -18 -95
-21 -19 -3 -46 -7 -60 -10 -14 -2 -56 -8 -95 -11 -122 -12 -3285 -2 -3350 10
-51 10 -168 53 -212 78 -96 55 -187 147 -230 234 -44 88 -47 123 -48 495 l0
355 228 2 c126 1 230 3 233 5 3 4 -7 17 -81 101 -22 24 -49 55 -60 68 -47 57
-210 247 -238 280 -18 19 -50 57 -72 84 -22 26 -51 60 -65 75 -14 15 -41 46
-60 70 -19 24 -44 53 -55 65 -11 11 -45 50 -75 85 -79 94 -61 95 -153 -14 -23
-28 -51 -60 -62 -73 -24 -27 -46 -53 -105 -122 -25 -30 -50 -59 -55 -65 -46
-49 -145 -171 -145 -178 0 -4 -6 -8 -13 -8 -7 0 -20 -12 -30 -27 -9 -16 -31
-44 -49 -64 -57 -63 -227 -264 -230 -273 -2 -4 101 -8 228 -8 l231 1 0 -337
c1 -420 4 -453 44 -582 18 -58 75 -187 89 -200 3 -3 23 -32 45 -65 53 -79 190
-213 279 -271 39 -25 84 -55 99 -66 16 -11 34 -21 40 -22 7 -2 42 -16 78 -33
58 -28 168 -66 224 -79 72 -17 116 -25 160 -31 68 -10 3414 -9 3490 0 114 14
154 21 205 33 14 4 34 8 46 10 11 1 40 8 65 15 24 7 46 13 49 14 93 20 278 92
425 166 65 33 227 129 235 139 3 3 27 22 55 40 52 36 78 55 104 80 9 8 30 25
46 38 101 79 280 274 383 417 43 60 72 104 72 108 0 3 17 34 39 69 39 64 100
182 102 195 1 5 9 24 19 43 31 61 107 286 125 369 31 138 38 178 39 206 1 17
4 35 7 40 21 40 16 599 -6 636 -2 3 -6 26 -9 51 -8 65 -60 260 -91 343 -14 39
-27 75 -29 80 -5 17 -24 63 -48 113 -12 26 -22 49 -22 52 -1 3 -29 55 -64 115
-61 108 -152 241 -222 326 -51 63 -237 248 -295 294 -27 22 -52 43 -55 46 -10
11 -177 125 -235 161 -93 56 -270 142 -375 181 -109 41 -314 99 -345 98 -2 0
-19 5 -37 10 -31 9 -97 19 -142 23 -19 1 -20 11 -22 246 -1 135 -4 263 -8 285
-3 22 -8 60 -11 85 -4 25 -8 60 -11 79 -3 18 -7 45 -9 60 -2 14 -4 26 -5 26
-2 0 -7 26 -14 72 -15 105 -118 459 -161 558 -8 17 -26 59 -40 95 -15 36 -38
89 -51 118 -13 28 -23 55 -23 58 0 4 -3 10 -8 13 -4 3 -24 38 -43 76 -19 39
-37 72 -40 75 -3 3 -16 25 -29 50 -14 25 -42 71 -63 102 -21 31 -38 61 -38 67
0 5 -4 11 -8 13 -4 2 -28 32 -52 68 -50 72 -68 95 -91 120 -9 10 -21 25 -25
33 -20 34 -162 194 -265 296 -136 136 -294 269 -429 361 -36 25 -66 48 -68 53
-2 4 -7 7 -11 7 -5 0 -42 23 -84 50 -42 28 -79 50 -82 50 -4 0 -19 8 -33 19
-39 27 -236 124 -372 184 -105 46 -373 135 -475 157 -22 5 -67 15 -100 23 -33
8 -78 18 -100 21 -22 3 -51 8 -65 11 -14 3 -45 7 -70 10 -25 3 -61 8 -80 10
-19 3 -57 8 -85 11 -61 8 -563 13 -570 6z"/>
</g>
</svg>
