<?xml version="1.0" standalone="no"?>
<!DOCTYPE svg PUBLIC "-//W3C//DTD SVG 20010904//EN"
 "http://www.w3.org/TR/2001/REC-SVG-20010904/DTD/svg10.dtd">
<svg version="1.0" xmlns="http://www.w3.org/2000/svg"
 width="904.000000pt" height="904.000000pt" viewBox="0 0 904.000000 904.000000"
 preserveAspectRatio="xMidYMid meet">
<metadata>
Created by potrace 1.11, written by Peter Selinger 2001-2013
</metadata>
<g transform="translate(0.000000,904.000000) scale(0.100000,-0.100000)"
fill="#000000" stroke="none">
<path d="M4723 7033 c0 -8 6 -9 19 -2 10 5 18 11 18 12 0 2 -8 3 -18 3 -10 0
-19 -6 -19 -13z"/>
<path d="M4769 7038 c-1 -7 -1 -16 -1 -19 1 -3 -19 -5 -44 -5 -24 1 -44 -2
-44 -5 0 -3 -11 -4 -24 -2 -17 4 -25 0 -29 -14 -4 -16 -5 -16 -6 0 0 9 -9 17
-18 17 -15 0 -16 -2 -3 -10 13 -8 13 -10 -2 -10 -9 0 -18 4 -20 9 -1 5 -10 2
-18 -7 -13 -14 -12 -15 5 -8 14 5 17 4 10 -3 -6 -6 -39 -11 -73 -12 -34 -1
-65 -6 -68 -10 -3 -5 0 -9 5 -9 6 0 11 -4 11 -9 0 -5 -6 -9 -12 -8 -66 2 -97
-4 -102 -21 -5 -15 -18 -19 -59 -21 -75 -2 -76 -3 -72 -22 4 -17 -10 -20 -33
-5 -7 4 -12 4 -11 -1 3 -20 -2 -25 -16 -13 -12 10 -15 10 -15 0 0 -7 -7 -10
-17 -6 -17 6 -17 5 -1 -7 10 -8 15 -17 11 -20 -3 -4 -12 -2 -20 4 -9 9 -13 8
-13 0 0 -6 -11 -11 -25 -11 -22 0 -29 -9 -27 -31 1 -4 -7 -6 -16 -6 -57 0 -64
-3 -59 -23 4 -17 0 -20 -26 -21 -18 -1 -35 -1 -39 0 -5 0 -8 -8 -8 -19 0 -15
-7 -20 -24 -20 -19 0 -24 -4 -21 -20 2 -13 -2 -20 -11 -20 -9 0 -12 5 -8 13 4
6 -2 4 -14 -7 -12 -10 -20 -23 -19 -30 1 -6 -14 -13 -34 -16 -26 -4 -35 -9
-34 -21 2 -12 -7 -19 -29 -23 -24 -5 -28 -9 -16 -16 8 -5 13 -10 10 -11 -3 0
-13 -2 -23 -4 -11 -2 -15 1 -10 8 4 7 -1 6 -11 -2 -9 -8 -15 -20 -12 -27 7
-17 -10 -28 -20 -13 -4 8 -3 9 4 5 8 -5 10 -2 6 9 -8 19 -13 15 -19 -13 -2
-12 -9 -30 -15 -39 -9 -15 -10 -15 -4 6 4 16 3 21 -5 17 -6 -4 -11 -14 -11
-22 0 -8 -4 -14 -9 -14 -5 0 -8 -8 -7 -17 1 -12 -5 -17 -16 -15 -10 2 -18 -2
-18 -7 0 -6 -7 -8 -15 -5 -10 4 -15 0 -15 -15 0 -19 -15 -27 -43 -22 -5 1 -6
-3 -3 -8 10 -16 -5 -40 -21 -34 -11 4 -14 2 -9 -5 4 -7 2 -12 -4 -12 -6 0 -9
-3 -7 -7 8 -14 -12 -53 -28 -53 -8 0 -15 -9 -15 -20 0 -14 -7 -20 -21 -20 -15
0 -19 -5 -15 -15 3 -8 1 -15 -4 -15 -6 0 -11 -10 -11 -22 -1 -17 -2 -19 -6 -5
-6 24 -23 22 -18 -3 2 -11 0 -20 -5 -20 -5 0 -7 -8 -5 -17 2 -15 -5 -18 -36
-19 -21 -1 -36 2 -33 7 3 5 -1 9 -8 9 -11 0 -11 2 0 9 13 8 -15 11 -105 13
-24 0 -43 5 -43 10 0 5 -6 6 -12 1 -7 -4 -26 -8 -43 -9 -16 -1 -25 0 -18 3 7
2 9 11 6 20 -5 12 -8 11 -18 -8 -12 -22 -13 -22 -19 -2 -6 19 -15 20 -116 20
-93 0 -109 -2 -99 -14 10 -11 8 -12 -6 -7 -14 6 -16 4 -10 -7 7 -11 6 -12 -7
-2 -8 7 -17 10 -21 7 -9 -10 -57 -12 -63 -3 -3 5 -10 9 -15 9 -6 0 -8 -4 -5
-9 7 -11 -13 -9 -33 3 -10 6 -12 5 -7 -2 7 -12 3 -13 -89 -15 -31 0 -42 -4
-35 -11 15 -15 12 -22 -10 -23 -13 -1 -18 2 -13 10 5 9 3 9 -8 0 -8 -6 -30
-12 -49 -14 -47 -4 -53 -8 -38 -27 11 -13 10 -15 -14 -10 -16 3 -28 1 -28 -3
0 -5 -7 -6 -15 -3 -8 4 -15 1 -15 -5 0 -6 5 -11 12 -11 33 0 -16 -18 -54 -19
-11 -1 -15 -6 -12 -15 3 -8 1 -17 -5 -21 -6 -3 -9 0 -5 8 3 8 -1 19 -9 25 -11
9 -13 7 -13 -11 1 -17 -5 -23 -27 -25 -23 -3 -28 -8 -24 -22 4 -14 0 -18 -14
-15 -17 3 -24 -6 -20 -28 0 -4 -2 -6 -6 -6 -21 4 -72 -15 -77 -28 -4 -9 -1
-12 7 -7 8 5 9 4 2 -4 -6 -7 -23 -13 -37 -14 -15 -1 -25 -5 -23 -8 6 -9 -23
-42 -32 -37 -5 3 -15 1 -23 -4 -12 -8 -11 -9 4 -7 10 2 21 -2 23 -8 2 -7 -4
-11 -13 -10 -11 0 -20 -9 -25 -24 -4 -14 -7 -19 -8 -12 -1 6 -6 12 -12 12 -5
0 -7 -4 -4 -10 3 -5 1 -10 -4 -10 -6 0 -11 -9 -11 -20 0 -14 -7 -20 -24 -20
-20 0 -23 -4 -18 -22 3 -14 1 -19 -6 -14 -13 8 -44 -22 -37 -35 4 -5 -4 -9
-15 -9 -15 0 -20 -5 -17 -15 4 -8 2 -17 -3 -20 -5 -3 -7 -14 -5 -25 2 -11 1
-19 -3 -19 -20 3 -33 -2 -31 -13 3 -17 -20 -72 -27 -65 -3 3 -1 15 5 26 9 16
9 19 -2 16 -7 -3 -14 -20 -16 -38 -2 -17 -5 -41 -6 -52 -2 -11 -4 -23 -4 -27
-1 -5 -4 -7 -8 -7 -25 4 -36 -2 -26 -12 13 -13 6 -42 -7 -34 -5 3 -12 0 -16
-6 -4 -7 -3 -9 4 -5 6 3 13 2 17 -4 5 -8 -5 -13 -25 -12 -5 0 -6 -14 -12 -120
-2 -20 -5 -36 -8 -36 -3 0 -7 -1 -10 -2 -3 -1 -13 -3 -23 -5 -39 -7 -52 -16
-38 -24 9 -6 7 -10 -8 -14 -14 -3 -19 -1 -15 6 3 7 -1 4 -9 -5 -9 -12 -17 -14
-24 -7 -7 7 -12 5 -16 -5 -4 -11 -1 -16 11 -17 14 0 14 -2 -3 -8 -11 -5 -28
-7 -38 -5 -11 2 -17 -4 -17 -16 0 -14 -5 -18 -16 -13 -13 5 -13 7 -2 14 7 5 8
9 2 9 -18 0 -24 -13 -12 -27 6 -8 7 -13 2 -12 -31 6 -56 -2 -50 -16 5 -13 -10
-20 -37 -16 -4 0 -7 -8 -7 -18 0 -11 -5 -23 -12 -27 -7 -5 -9 -2 -6 8 4 8 0
15 -8 15 -7 0 -11 -4 -8 -9 3 -5 0 -16 -8 -25 -7 -9 -12 -19 -10 -22 1 -3 -8
-7 -20 -9 -13 -1 -28 -3 -35 -4 -7 -1 -11 -11 -10 -22 2 -16 -3 -20 -20 -18
-18 2 -21 -1 -18 -17 4 -19 -9 -27 -37 -22 -5 0 -8 -6 -8 -15 0 -9 -8 -22 -17
-29 -15 -11 -22 -29 -25 -63 -1 -7 -11 -11 -22 -10 -17 2 -20 -2 -18 -19 2
-17 -2 -23 -17 -23 -14 0 -19 -5 -16 -20 2 -11 0 -20 -6 -20 -5 0 -9 -6 -9
-14 0 -8 -5 -18 -10 -21 -7 -4 -9 3 -6 20 3 15 2 24 -2 20 -8 -7 -9 -13 -11
-49 0 -14 -9 -27 -19 -30 -10 -3 -18 -14 -19 -23 -3 -40 -7 -62 -13 -61 -22 2
-31 -4 -27 -17 4 -8 2 -17 -4 -21 -6 -3 -8 -13 -5 -21 4 -8 1 -11 -5 -8 -6 4
-8 13 -5 21 4 12 2 12 -14 4 -11 -6 -20 -13 -20 -16 0 -3 4 -2 10 1 18 11 2
-79 -17 -95 -16 -13 -22 -34 -26 -88 0 -9 -4 -8 -16 2 -14 13 -16 11 -16 -17
1 -18 -4 -35 -10 -39 -6 -5 -6 -8 2 -8 7 0 10 -6 7 -14 -3 -8 -12 -12 -19 -10
-7 3 -16 0 -21 -7 -4 -8 -3 -10 4 -5 7 4 19 3 28 -2 14 -8 13 -12 -10 -29 -26
-21 -36 -40 -13 -27 8 5 8 2 -2 -9 -7 -9 -10 -17 -6 -17 4 0 3 -6 -3 -13 -6
-7 -7 -18 -2 -27 4 -7 5 -23 1 -34 -4 -12 -6 -31 -5 -43 0 -12 -3 -20 -8 -17
-4 3 -5 10 -2 16 5 7 2 8 -6 3 -10 -6 -12 -4 -6 11 4 10 3 15 -1 10 -10 -10
-11 -56 -1 -50 4 3 8 1 8 -5 0 -5 -6 -12 -12 -15 -10 -5 -10 -7 0 -12 6 -3 12
-10 12 -15 0 -6 -4 -8 -9 -5 -4 3 -8 -64 -9 -149 0 -87 4 -155 9 -155 5 0 9
-5 9 -11 0 -5 -4 -8 -8 -5 -11 6 -10 -100 1 -110 11 -12 8 -26 -5 -18 -7 5 -8
3 -3 -5 5 -9 10 -10 18 -2 8 8 8 14 -1 23 -13 13 -16 32 -4 24 4 -2 8 4 8 14
0 10 -4 16 -8 14 -4 -3 -8 0 -8 5 0 6 5 11 11 11 5 0 8 4 5 8 -2 4 -1 14 4 22
6 10 8 1 5 -27 -2 -23 0 -45 5 -48 5 -3 5 -19 -1 -37 -6 -23 -5 -34 4 -40 9
-6 9 -8 0 -8 -9 0 -10 -7 -5 -22 4 -13 8 -42 7 -65 0 -26 4 -38 9 -32 6 5 15
9 20 9 6 -1 0 -10 -13 -20 -13 -11 -18 -20 -13 -20 6 0 14 5 17 10 3 6 11 10
17 10 7 0 6 -5 -1 -14 -9 -11 -9 -16 0 -21 8 -6 7 -10 -2 -16 -9 -6 -10 -9 -2
-9 6 0 10 -11 8 -25 -1 -14 1 -28 6 -31 4 -2 6 -12 3 -22 -5 -14 -4 -14 4 -2
6 8 8 18 5 24 -4 5 -1 6 6 2 7 -5 10 -14 7 -22 -3 -8 -2 -14 2 -14 4 0 7 -19
7 -42 0 -27 5 -43 13 -44 36 -4 37 -4 22 -14 -12 -8 -12 -10 -1 -10 9 0 12 -8
8 -27 -4 -24 -4 -26 8 -10 16 23 25 22 20 -3 -2 -11 0 -20 4 -20 4 0 7 -13 6
-30 -1 -16 2 -27 7 -24 4 3 8 13 9 22 1 27 22 -28 23 -60 1 -15 8 -33 16 -40
12 -11 12 -11 1 5 -11 14 -11 17 3 17 17 0 17 0 20 -44 0 -16 7 -31 14 -34 7
-2 10 2 6 12 -3 9 -2 16 3 16 5 0 10 -6 11 -12 3 -43 15 -63 35 -63 7 0 11 -8
11 -18 -1 -10 5 -17 17 -17 14 0 19 -7 19 -26 0 -22 3 -24 14 -15 16 13 20 9
30 -33 4 -17 10 -26 14 -20 11 15 29 14 29 -2 0 -8 -5 -14 -11 -15 -6 0 1 -6
15 -12 26 -12 29 -16 29 -37 0 -5 6 -7 13 -4 8 3 20 -3 28 -12 9 -12 10 -15 2
-10 -7 4 -13 5 -13 1 0 -3 12 -10 26 -15 16 -6 24 -16 21 -24 -3 -7 0 -13 6
-13 36 1 48 -4 45 -19 -3 -16 13 -24 55 -27 10 -1 15 -7 12 -15 -3 -8 7 -17
25 -24 30 -10 41 -27 18 -29 -7 0 2 -5 19 -10 18 -5 32 -14 30 -21 -1 -6 4
-13 11 -15 8 -3 10 1 6 11 -3 9 -1 16 5 16 6 0 10 -3 10 -7 -3 -19 2 -31 14
-30 35 1 57 -4 57 -14 0 -5 -4 -8 -9 -4 -5 3 -12 2 -15 -3 -2 -4 5 -9 17 -10
12 -2 31 -4 42 -5 11 -2 19 -8 18 -15 -2 -7 2 -12 8 -12 5 0 8 -3 6 -7 -3 -5
19 -8 48 -8 35 0 51 -4 48 -11 -7 -18 14 -27 71 -29 74 -3 76 -4 76 -16 0 -5
-4 -7 -10 -4 -6 3 -7 -1 -3 -10 4 -12 8 -13 13 -5 4 7 10 8 13 3 3 -5 26 -8
51 -8 33 1 46 -3 46 -13 0 -7 -5 -10 -12 -6 -7 5 -8 3 -3 -6 6 -10 11 -9 22 5
11 16 13 16 13 3 0 -9 9 -18 20 -21 11 -3 20 -1 20 4 0 5 10 5 23 0 12 -5 35
-7 50 -6 15 2 25 -1 22 -5 -3 -5 -1 -12 5 -15 6 -4 9 -1 8 6 -2 9 9 13 32 14
46 2 55 -4 33 -22 -17 -13 -16 -13 5 -3 12 6 22 14 22 18 0 4 22 7 49 7 37 0
47 -3 43 -13 -4 -11 -6 -11 -14 0 -7 10 -11 10 -14 1 -3 -7 -13 -9 -22 -6 -14
4 -14 3 -3 -5 8 -6 20 -8 27 -5 6 2 15 -1 19 -6 3 -6 11 -8 17 -5 17 11 92 12
105 2 6 -5 14 -5 17 1 3 5 14 7 25 4 12 -3 20 2 23 15 7 25 41 23 46 -3 3 -11
0 -15 -7 -10 -6 3 -9 10 -7 14 3 4 -1 8 -8 8 -7 0 -13 -6 -13 -13 0 -7 4 -11
8 -8 4 2 10 0 14 -6 4 -6 13 -7 23 -2 20 10 162 9 178 -1 12 -7 29 21 19 31
-3 3 -5 1 -5 -4 0 -14 -93 -13 -102 0 -5 7 -8 6 -8 -3 0 -11 -3 -11 -17 0 -15
12 -16 12 -8 -1 7 -13 6 -13 -7 -2 -11 9 -18 9 -21 2 -3 -6 -4 -5 -3 2 3 14
52 18 78 6 9 -5 19 -4 22 1 7 10 25 9 42 -2 6 -3 14 -3 18 1 4 4 27 7 51 7 33
0 41 -3 33 -12 -6 -7 -9 -13 -7 -14 30 -6 38 -5 50 3 11 8 10 9 -3 4 -11 -3
-18 0 -18 7 0 7 11 12 23 12 19 0 23 -5 21 -23 -2 -18 0 -21 11 -12 8 6 12 17
9 23 -2 7 6 12 20 12 13 0 22 -3 19 -7 -2 -5 1 -8 6 -8 6 0 11 3 11 8 0 6 27
7 74 3 8 0 17 -9 19 -19 4 -14 5 -13 6 4 1 24 37 27 51 4 5 -7 19 -15 32 -17
17 -2 19 -1 8 6 -8 5 -18 7 -22 5 -4 -3 -8 1 -8 9 0 20 48 10 53 -12 3 -10 5
-8 6 7 0 13 5 20 11 17 6 -4 8 -10 5 -15 -9 -14 16 -23 28 -11 9 9 8 11 -4 6
-9 -3 -16 -1 -16 8 0 9 14 13 46 13 47 -1 69 -14 48 -29 -8 -6 -7 -7 3 -4 8 2
14 10 13 16 -3 13 -3 13 60 15 44 2 63 -7 35 -16 -8 -3 -6 -7 5 -11 9 -3 16
-3 16 1 -1 4 -1 12 0 17 1 6 126 10 353 10 302 0 355 -2 366 -15 10 -13 11
-13 6 2 -4 12 -1 16 13 13 10 -1 17 -8 15 -16 -2 -9 1 -9 13 1 21 17 43 21 51
9 3 -5 11 -6 17 -2 7 4 447 8 978 9 532 1 972 5 978 8 6 4 11 3 11 -2 0 -6 9
-8 20 -5 11 3 17 10 14 17 -3 6 1 3 9 -7 12 -14 20 -16 34 -8 11 5 25 6 33 1
8 -5 21 -5 31 0 9 5 19 7 22 4 8 -8 182 -8 195 0 6 3 13 3 15 -1 6 -10 59 -9
75 1 7 4 12 4 12 -1 0 -4 23 -8 50 -8 28 0 50 4 50 8 0 5 5 5 12 1 16 -10 61
-10 78 1 8 5 15 4 17 -2 3 -8 14 -8 33 -3 17 5 32 5 35 0 7 -11 35 -2 35 10 0
5 -9 7 -20 5 -11 -2 -20 0 -20 5 0 5 8 8 18 8 9 0 22 0 27 2 21 5 36 0 29 -11
-4 -8 -9 -7 -16 2 -8 12 -9 11 -6 0 6 -22 26 -24 32 -4 5 16 18 18 101 18 52
0 103 3 112 7 14 5 15 7 3 8 -8 2 -22 2 -30 1 -13 -2 -13 0 -1 8 9 6 24 6 38
0 31 -11 33 -11 33 2 0 5 -4 7 -10 4 -6 -3 -10 -2 -10 3 0 5 27 9 61 7 55 -2
60 0 56 17 -4 14 -1 18 11 16 9 -1 23 1 30 5 6 5 12 5 12 1 0 -3 7 -1 15 6 9
7 15 8 15 2 0 -6 8 -9 18 -7 9 2 22 4 27 4 6 1 3 5 -5 11 -15 10 -10 20 12 24
23 3 39 17 32 28 -4 7 -2 8 4 4 7 -4 12 -14 12 -22 0 -8 4 -14 8 -14 5 0 8 10
8 22 -1 23 2 24 49 27 17 1 25 7 25 20 0 15 7 19 36 17 20 -1 38 3 41 8 4 5 1
6 -5 2 -7 -4 -12 -1 -12 8 0 8 9 20 20 26 13 7 20 7 20 1 0 -6 7 -8 16 -4 9 3
12 9 7 12 -13 10 -14 31 0 26 16 -6 51 21 43 34 -4 6 6 9 24 9 17 -1 33 2 37
5 3 4 0 7 -9 7 -8 0 -15 7 -15 15 0 11 4 12 14 4 9 -9 13 -8 13 0 0 7 5 9 11
5 7 -4 9 2 7 14 -2 12 2 21 7 22 6 0 10 -4 10 -9 0 -5 4 -13 9 -18 5 -5 6 -3
2 5 -4 6 -3 12 3 12 6 0 8 7 5 14 -4 11 0 14 19 10 21 -3 24 -1 20 15 -3 11 2
21 11 24 9 4 16 2 16 -4 0 -6 5 -7 10 -4 8 5 7 11 -1 21 -9 11 -9 14 0 14 7 0
9 5 6 10 -8 13 8 13 21 0 7 -7 11 -6 11 4 0 8 -4 13 -8 10 -4 -2 -10 0 -14 6
-3 5 1 10 9 10 8 0 21 11 28 24 7 14 18 26 23 28 6 1 9 8 7 14 -1 6 5 18 15
25 14 12 16 12 9 0 -6 -9 -5 -12 5 -9 8 3 13 12 11 22 -2 9 2 16 8 16 6 0 8 5
5 10 -4 6 -3 10 2 9 25 -4 33 4 33 36 0 19 4 35 9 35 6 0 8 -9 6 -20 -2 -12 0
-18 6 -15 5 4 7 11 4 16 -4 5 -2 9 3 9 6 0 8 9 5 20 -3 11 0 20 6 20 6 0 11 5
11 11 0 5 -6 7 -12 3 -10 -6 -10 -5 -1 8 7 8 11 17 8 20 -3 2 2 5 10 5 11 0
12 -4 4 -13 -7 -8 -7 -14 1 -19 6 -4 10 -3 9 2 -1 4 0 11 1 16 3 7 5 28 10 70
2 17 3 18 7 5 2 -10 8 -18 13 -18 4 0 7 8 5 18 -1 9 2 22 7 29 5 7 7 17 3 23
-3 5 -1 10 5 10 6 0 9 4 5 9 -3 6 3 14 13 20 12 7 17 20 17 44 -1 26 4 38 19
47 18 9 21 20 20 84 0 58 3 73 13 69 10 -4 11 -9 3 -18 -11 -13 -8 -13 29 -6
2 1 -2 7 -8 14 -6 8 -8 17 -4 20 3 4 7 57 7 120 1 62 6 119 11 126 5 8 4 12
-1 9 -5 -4 -9 9 -9 27 0 19 4 31 9 28 6 -4 6 1 2 13 -4 10 -8 43 -9 72 -2 43
1 51 13 47 13 -4 13 -3 0 7 -12 10 -16 32 -15 85 0 40 -4 73 -8 73 -5 0 -6 4
-3 8 10 17 15 62 5 57 -5 -4 -9 0 -10 7 0 7 -5 4 -10 -7 -8 -17 -9 -16 -6 7 3
16 -1 28 -7 28 -6 0 -4 5 4 10 12 7 12 10 1 10 -7 0 -11 6 -8 14 3 7 0 19 -6
25 -8 8 -8 11 2 11 7 0 10 4 6 10 -3 5 -12 7 -19 4 -18 -7 -30 12 -15 22 8 4
9 3 5 -4 -4 -7 -2 -12 4 -12 17 0 24 30 10 43 -10 9 -11 9 -5 -2 5 -9 3 -12
-6 -9 -8 3 -13 13 -11 22 2 10 -2 24 -9 32 -9 11 -8 14 2 14 11 0 11 2 -1 9
-8 6 -18 7 -22 5 -5 -3 -8 -2 -7 3 1 4 -1 25 -6 46 -5 26 -12 37 -21 33 -13
-5 -18 5 -15 32 1 6 -4 12 -11 12 -9 0 -9 3 2 10 13 8 12 12 -4 27 -19 17 -19
17 -7 0 12 -15 12 -17 -3 -11 -16 6 -18 14 -19 62 -1 15 -7 22 -20 22 -10 0
-15 4 -12 10 3 6 1 10 -4 10 -6 0 -10 6 -8 13 1 7 -6 11 -17 9 -15 -3 -18 1
-13 17 6 24 -28 51 -35 29 -3 -8 -7 -6 -11 4 -4 13 -1 16 14 13 10 -2 19 0 19
6 0 5 -6 9 -14 9 -21 0 -40 27 -24 33 7 3 1 6 -14 6 -21 1 -26 5 -23 20 2 11
-4 26 -13 33 -12 10 -14 10 -8 1 4 -7 2 -13 -3 -13 -11 0 -15 13 -12 38 2 10
-4 12 -18 7 -17 -5 -21 -2 -21 18 0 18 -5 23 -22 23 -13 -1 -23 5 -24 12 -1 6
-2 16 -3 21 0 5 -9 8 -18 7 -12 -1 -17 5 -15 18 2 11 -1 15 -7 11 -6 -3 -11
-2 -11 4 0 6 -7 7 -17 4 -11 -4 -14 -3 -9 5 4 7 2 12 -3 12 -6 0 -10 5 -8 11
1 6 -8 13 -21 14 -12 1 -28 7 -35 14 -9 10 -8 11 4 6 10 -4 20 -1 24 5 3 6 3
10 -2 9 -26 -5 -53 2 -47 12 4 8 0 8 -15 0 -22 -12 -29 -3 -11 15 6 6 2 10
-13 12 -43 4 -57 8 -67 18 -7 7 -6 11 4 11 8 0 13 -3 11 -7 -2 -4 2 -7 10 -7
11 0 12 4 4 14 -6 7 -27 13 -46 13 -29 0 -33 2 -24 14 14 17 4 25 -33 28 -14
1 -26 7 -26 13 0 5 -5 3 -10 -5 -7 -11 -10 -11 -10 -2 0 8 -5 10 -12 6 -9 -5
-9 -2 1 9 15 19 15 19 -51 21 -26 1 -53 8 -60 15 -10 11 -10 12 0 7 6 -4 12
-2 12 3 0 6 -11 12 -25 12 -14 1 -29 3 -35 4 -5 1 -17 3 -25 4 -8 0 -15 5 -15
11 0 5 7 7 15 4 8 -4 15 -2 15 4 0 5 -8 9 -17 9 -62 0 -70 7 -49 42 6 9 5 12
-1 8 -7 -5 -10 9 -8 38 1 25 -1 43 -4 39 -3 -3 -6 -9 -6 -12 0 -4 -4 -13 -8
-19 -5 -8 -4 -13 2 -13 6 0 11 -4 11 -8 0 -5 -6 -9 -12 -9 -9 0 -13 17 -14 48
-1 32 3 46 10 42 8 -5 8 -3 0 8 -6 8 -10 38 -10 66 1 29 -2 53 -6 53 -4 0 -5
9 -3 20 2 11 -1 20 -6 20 -6 0 -7 5 -3 12 4 7 3 8 -4 4 -8 -5 -9 -13 -2 -26 7
-13 6 -19 -3 -23 -9 -3 -12 14 -13 62 -1 36 -4 77 -7 91 -3 14 -6 28 -6 33 -1
4 -6 6 -13 5 -7 -2 -12 7 -13 19 0 12 -3 25 -7 29 -4 4 -3 13 3 21 9 10 6 13
-12 13 -21 0 -24 4 -23 40 0 22 -3 40 -8 40 -5 0 -6 5 -3 10 5 9 -6 14 -26 12
-3 -1 -5 15 -4 33 1 21 -2 32 -8 28 -6 -4 -8 2 -5 15 4 12 2 22 -3 22 -5 0 -9
-5 -9 -12 0 -22 -13 2 -16 29 -1 16 -3 30 -4 33 -1 3 -3 12 -4 20 0 8 -7 16
-13 16 -25 3 -25 4 -12 21 10 12 10 14 1 9 -7 -4 -15 -1 -18 9 -6 13 -8 14
-15 3 -6 -9 -9 -4 -10 17 -1 17 -3 35 -3 42 -2 16 -16 29 -16 15 0 -6 -6 -9
-14 -6 -8 3 -12 13 -9 25 3 10 1 19 -5 19 -6 0 -9 9 -7 20 2 11 1 19 -3 19
-29 -5 -40 3 -34 23 4 18 2 20 -16 16 -12 -4 -20 -2 -16 3 3 5 -1 9 -8 9 -10
0 -9 3 2 10 11 7 9 11 -12 19 -19 7 -25 15 -23 35 3 27 -10 36 -18 14 -6 -19
-17 -5 -19 25 -2 18 -6 23 -12 17 -14 -14 -23 -12 -29 4 -4 10 -1 13 7 10 8
-3 17 0 22 7 4 8 3 10 -4 5 -12 -7 -44 6 -43 17 3 20 0 27 -10 27 -8 0 -8 -4
0 -14 9 -10 8 -15 -2 -19 -14 -5 -17 5 -18 53 l-1 25 -12 -24 c-11 -20 -14
-21 -19 -7 -4 10 -3 15 3 11 6 -3 10 -1 10 4 0 11 -13 15 -36 12 -7 -1 -14 5
-17 12 -3 8 1 14 9 14 7 0 10 -5 7 -10 -4 -6 -1 -7 6 -3 7 5 9 11 6 15 -6 6
-10 7 -36 10 -5 0 -8 5 -5 9 2 4 0 14 -6 22 -8 13 -9 12 -5 -2 3 -9 0 -19 -8
-22 -9 -3 -12 1 -10 12 3 17 -28 64 -40 61 -19 -5 -44 11 -39 25 5 12 0 16
-19 16 -20 0 -25 4 -22 20 3 16 -2 20 -28 21 -18 1 -35 1 -38 1 -3 -1 -6 6 -6
13 0 10 4 12 12 5 8 -7 12 -5 12 5 0 7 -3 14 -6 13 -39 -4 -61 4 -61 22 0 15
-7 20 -25 20 -22 0 -29 8 -27 30 0 3 -14 7 -31 8 -30 3 -50 19 -41 33 2 4 -3
10 -12 13 -12 5 -15 2 -10 -11 6 -17 5 -17 -8 0 -9 11 -20 15 -32 10 -17 -6
-17 -5 -5 10 8 10 11 20 7 24 -3 3 -6 1 -6 -5 0 -7 -5 -12 -11 -12 -5 0 -7 5
-4 10 4 6 -5 10 -20 10 -15 0 -24 4 -20 10 3 6 1 10 -5 10 -6 0 -9 4 -6 8 3 5
0 9 -7 10 -86 7 -102 11 -105 26 -2 9 -12 16 -23 16 -11 0 -24 10 -30 23 l-10
22 5 -22 c2 -13 0 -23 -5 -23 -8 0 -13 13 -11 31 1 5 -44 10 -119 13 -16 0
-25 6 -22 13 3 6 14 10 25 8 11 -3 18 -1 14 2 -7 8 -21 9 -133 15 -45 2 -68 7
-62 12 5 6 9 13 9 16 0 7 -1 8 -85 10 -33 1 -66 7 -74 14 -9 6 -12 7 -9 1 4
-7 -7 -11 -28 -12 -19 0 -34 4 -34 9 0 5 -4 6 -10 3 -5 -3 -7 0 -4 8 6 17 -27
19 -38 3 -5 -8 -8 -7 -8 2 0 9 -45 12 -193 12 -141 0 -197 -3 -206 -12 -11
-10 -13 -10 -7 0 5 8 0 12 -13 12 -12 0 -21 -6 -21 -12 0 -9 -2 -10 -8 -2 -8
13 -52 14 -52 2 0 -5 0 -11 0 -15 0 -5 5 -1 11 7 9 13 10 13 6 0 -5 -22 -43
-19 -39 3 2 9 -2 17 -8 17 -5 0 -11 -6 -11 -12z m562 -21 c-10 -9 -11 -8 -5 6
3 10 9 15 12 12 3 -3 0 -11 -7 -18z m737 -202 c-3 -3 -13 -2 -22 1 -14 5 -15
9 -4 15 13 8 36 -6 26 -16z m197 -115 c3 -5 1 -10 -4 -10 -6 0 -11 5 -11 10 0
6 2 10 4 10 3 0 8 -4 11 -10z m280 -200 c3 -5 -1 -10 -9 -10 -9 0 -16 5 -16
10 0 6 4 10 9 10 6 0 13 -4 16 -10z m-1670 -67 c3 -11 0 -11 -16 -2 -17 9 -20
8 -14 -2 5 -8 4 -10 -3 -5 -19 11 -14 25 8 23 11 -1 22 -7 25 -14z m323 -1
c12 -15 13 -15 9 -1 -5 14 3 16 43 15 33 -1 46 -5 43 -13 -6 -16 -9 -16 -33
-3 -15 8 -18 7 -14 -3 6 -15 80 -17 103 -2 9 5 12 4 8 -2 -4 -7 6 -11 26 -11
63 1 107 -6 107 -17 0 -5 5 -3 11 5 8 11 9 9 3 -10 -6 -23 -6 -24 11 -10 11 8
16 10 12 3 -6 -9 4 -11 33 -10 30 2 40 -1 40 -13 0 -9 3 -11 8 -4 10 14 49 12
49 -3 0 -7 -5 -9 -11 -6 -6 3 -7 2 -3 -2 9 -10 27 -14 80 -16 21 -1 41 -7 44
-12 3 -6 1 -7 -5 -3 -7 4 -12 3 -12 -3 0 -11 28 -21 67 -24 12 0 21 -4 21 -7
-2 -19 4 -31 15 -29 28 3 37 -2 37 -22 0 -12 4 -17 11 -14 6 4 8 14 5 22 -4 8
-1 11 5 8 6 -4 8 -13 5 -21 -4 -10 3 -14 24 -14 17 0 30 -4 30 -10 0 -5 -5
-10 -11 -10 -5 0 -7 -5 -4 -11 4 -6 13 -8 21 -5 9 4 18 -4 24 -20 9 -23 12
-24 27 -13 12 10 15 10 9 2 -4 -8 -2 -13 4 -13 7 0 10 -7 7 -14 -4 -10 -1 -13
8 -9 8 3 12 10 8 16 -3 6 -1 7 6 3 9 -6 9 -11 0 -22 -7 -9 -8 -14 -3 -13 25 4
54 -2 49 -11 -3 -5 -1 -10 5 -10 6 0 9 -4 5 -9 -3 -5 7 -11 22 -13 21 -2 27
-8 25 -21 -2 -13 2 -17 15 -15 10 2 17 -2 16 -9 -2 -7 4 -13 12 -13 8 0 15 -5
15 -11 0 -5 4 -8 9 -5 5 4 8 -5 7 -18 -2 -14 0 -25 3 -24 26 3 39 -4 37 -19
-2 -11 5 -20 18 -23 12 -3 22 -11 22 -18 5 -42 6 -46 11 -34 5 13 24 17 21 5
0 -5 2 -17 6 -28 5 -11 10 -26 12 -33 2 -7 8 -11 13 -8 5 3 14 -1 21 -9 9 -11
9 -15 1 -15 -7 0 -9 -5 -6 -11 5 -7 14 -4 28 8 12 9 17 12 11 5 -8 -9 -8 -26
-1 -57 10 -44 30 -66 22 -25 -2 12 0 18 6 15 5 -4 7 -10 4 -15 -3 -5 -1 -11 5
-15 6 -4 8 -10 6 -14 -9 -14 10 -66 25 -66 8 0 14 -9 14 -20 0 -11 8 -21 18
-23 9 -2 18 -13 19 -25 1 -12 2 -29 4 -37 1 -8 2 -25 3 -37 1 -13 6 -23 12
-23 6 0 8 9 4 20 -4 13 -2 20 6 20 7 0 9 -3 6 -6 -3 -4 -2 -15 4 -25 7 -13 6
-19 -1 -19 -7 0 -8 -6 -2 -17 4 -10 8 -25 7 -33 0 -8 4 -18 10 -22 6 -5 5 -11
-5 -18 -15 -9 -13 -11 12 -14 7 0 14 -9 16 -20 3 -13 0 -16 -10 -10 -9 6 -9 3
2 -10 8 -10 15 -33 16 -50 3 -47 3 -48 17 -41 6 4 5 1 -3 -7 -17 -15 -20 -85
-4 -85 6 0 10 13 9 28 -1 15 1 32 5 38 6 10 9 -29 9 -104 0 -11 0 -33 1 -50 0
-43 -1 -76 -4 -108 -1 -15 1 -32 5 -38 3 -6 3 -25 -1 -43 -4 -17 -4 -40 0 -51
5 -13 2 -27 -9 -39 -9 -11 -11 -16 -5 -13 8 5 11 -8 11 -42 -1 -39 -5 -48 -17
-45 -8 3 -5 -1 8 -7 13 -8 22 -22 23 -38 1 -17 3 -20 6 -8 2 9 9 17 14 17 6 0
8 -10 5 -22 -3 -13 -3 -17 0 -10 4 9 10 10 19 2 9 -7 16 -6 25 4 10 13 8 15
-9 11 -12 -2 -21 1 -21 7 0 5 6 8 14 5 7 -3 18 -1 24 5 8 8 10 3 6 -17 -4 -25
-3 -27 11 -15 13 11 18 11 24 1 6 -9 15 -9 35 -1 15 5 25 6 22 1 -4 -5 11 -9
31 -9 102 1 153 -3 153 -13 0 -5 -4 -8 -8 -5 -5 3 -9 0 -9 -7 0 -9 20 -12 69
-12 49 1 68 -2 68 -11 0 -7 4 -15 9 -18 8 -5 67 -16 98 -18 9 -1 10 -5 3 -13
-8 -9 -6 -14 5 -19 9 -3 13 -2 10 4 -3 6 -1 10 4 10 6 0 11 -5 11 -11 0 -5 5
-7 10 -4 6 3 10 0 10 -7 0 -9 3 -9 10 2 7 11 10 11 10 2 0 -8 5 -10 13 -6 7 5
6 0 -3 -11 -9 -11 -10 -16 -2 -11 6 4 12 3 12 -3 0 -5 9 -10 20 -10 11 -1 30
-1 42 -1 18 -1 19 -3 8 -10 -8 -5 -18 -6 -22 -4 -4 3 -8 0 -8 -6 0 -7 7 -10
15 -6 8 3 15 1 15 -5 0 -6 7 -9 15 -5 16 6 39 -26 27 -39 -4 -5 1 -5 11 -2 9
4 17 2 17 -4 0 -6 5 -7 11 -3 8 5 8 1 0 -14 -9 -17 -8 -20 7 -17 20 3 44 -14
36 -26 -3 -5 6 -13 20 -18 18 -7 24 -16 22 -34 -2 -14 2 -24 10 -24 7 0 11 4
8 9 -3 4 0 8 6 8 7 0 10 -7 7 -15 -4 -8 -1 -17 4 -21 6 -3 9 -14 6 -23 -2 -10
1 -18 9 -18 7 0 10 5 7 11 -4 6 1 5 11 -3 9 -8 15 -20 12 -27 -3 -7 -1 -16 4
-19 6 -4 10 -11 10 -16 0 -6 -5 -7 -12 -3 -7 5 -8 3 -3 -6 6 -10 11 -9 23 6
13 18 14 18 7 -5 -4 -14 -3 -21 2 -18 6 4 8 -4 5 -20 -4 -23 -2 -25 17 -20 11
3 19 1 16 -3 -3 -5 -2 -11 3 -13 4 -3 7 -26 6 -51 -1 -30 2 -43 9 -39 7 4 8 0
3 -12 -5 -14 -4 -16 7 -6 12 9 14 6 12 -14 -2 -14 1 -25 6 -25 5 0 9 -5 9 -11
0 -5 -5 -7 -11 -3 -8 4 -8 1 -1 -12 5 -11 8 -34 6 -52 -1 -18 1 -30 5 -28 4 3
13 0 21 -5 12 -8 11 -9 -4 -7 -17 3 -20 -3 -21 -39 -1 -31 2 -40 12 -36 10 4
11 9 2 19 -9 11 -9 14 0 14 7 0 9 5 5 13 -4 6 -3 8 2 4 10 -10 13 -128 2 -121
-4 2 -5 18 -3 34 2 19 0 28 -7 24 -5 -4 -8 -22 -6 -40 2 -19 1 -34 -2 -34 -4
0 -6 -36 -5 -80 0 -44 -2 -80 -5 -80 -4 0 -6 -16 -5 -36 2 -25 -1 -32 -8 -25
-15 15 -24 14 -24 -4 0 -8 5 -11 11 -8 6 4 5 -1 -2 -9 -8 -9 -13 -25 -12 -35
4 -36 0 -45 -19 -40 -15 4 -18 -1 -16 -24 1 -16 -1 -29 -5 -29 -4 0 -6 -12 -4
-27 2 -16 1 -20 -2 -10 -7 23 -24 22 -25 -3 -1 -11 -3 -24 -4 -30 -1 -5 -3
-18 -4 -27 -1 -15 -3 -16 -10 -3 -6 8 -7 18 -5 22 3 4 -3 5 -12 1 -12 -4 -14
-8 -6 -11 10 -3 10 -7 1 -18 -6 -7 -8 -21 -5 -30 5 -13 2 -15 -19 -10 -24 6
-25 5 -15 -15 8 -15 9 -19 1 -15 -6 4 -11 1 -11 -8 0 -8 -4 -18 -10 -21 -6 -4
-7 1 -3 12 6 16 5 16 -10 5 -8 -8 -13 -20 -10 -28 3 -8 -1 -14 -9 -14 -18 0
-48 -36 -40 -46 4 -5 0 -3 -9 4 -14 10 -18 10 -22 -2 -4 -9 1 -17 11 -19 11
-3 7 -5 -9 -6 -14 0 -34 -8 -45 -17 -10 -8 -13 -13 -7 -9 8 4 11 1 7 -9 -3 -8
-14 -13 -26 -11 -16 3 -19 0 -15 -15 4 -16 0 -20 -19 -21 -13 -1 -30 -2 -36
-3 -7 -1 -18 -10 -25 -22 -9 -15 -21 -20 -42 -19 -23 1 -31 -3 -31 -15 0 -19
-33 -29 -80 -26 -16 1 -27 -3 -27 -11 0 -6 4 -10 9 -7 4 3 5 -3 1 -12 -4 -11
-8 -13 -11 -6 -2 7 -10 12 -18 12 -9 0 -13 -3 -11 -7 3 -5 -33 -8 -79 -9 -47
0 -90 -6 -96 -12 -13 -13 9 -11 31 2 9 6 12 5 7 -2 -3 -5 0 -12 6 -15 7 -2 -9
-3 -36 -3 -39 1 -51 5 -58 21 -7 18 -8 17 -4 -3 3 -17 1 -22 -10 -18 -8 3 -14
0 -14 -7 0 -9 -3 -9 -9 1 -8 14 -32 13 -42 -2 -4 -4 -16 -3 -28 4 -14 7 -27 8
-34 2 -7 -5 -23 -6 -37 -2 -14 3 -41 3 -61 0 -21 -4 -45 -3 -54 3 -10 5 -20 5
-24 1 -6 -9 -231 -13 -231 -4 0 4 -54 5 -68 1 -1 -1 -350 -2 -775 -3 -535 -1
-776 -5 -786 -12 -11 -8 -13 -8 -7 2 6 10 -1 12 -26 9 -19 -2 -40 -7 -47 -12
-9 -5 -12 -4 -8 1 3 6 -82 10 -227 9 -184 0 -237 -3 -250 -14 -14 -12 -17 -12
-14 -1 2 11 -23 14 -125 14 -71 1 -131 -3 -134 -7 -3 -4 -10 -4 -16 1 -15 11
-218 9 -236 -3 -8 -4 -12 -4 -9 1 4 5 -28 9 -73 9 -79 0 -94 -5 -61 -24 9 -6
12 -11 5 -11 -6 0 -15 5 -18 10 -5 8 -11 8 -19 1 -9 -8 -13 -7 -13 4 0 8 4 12
9 9 4 -3 8 0 8 5 0 14 -6 14 -32 0 -15 -8 -19 -8 -14 0 4 6 3 11 -2 11 -17 0
-22 -13 -10 -27 8 -11 7 -12 -6 -7 -9 3 -16 12 -16 20 0 18 -20 18 -48 -1 -20
-14 -21 -14 -16 0 3 8 1 15 -5 15 -6 0 -11 -6 -12 -12 0 -10 -2 -10 -5 -1 -4
8 -11 6 -25 -8 -10 -10 -25 -19 -31 -18 -10 0 -10 2 0 6 6 2 10 9 7 14 -4 5 2
6 12 2 10 -3 15 -2 10 3 -10 11 -227 12 -227 2 0 -5 5 -7 11 -5 6 1 13 -4 15
-11 1 -7 0 -8 -3 -2 -2 5 -8 8 -13 5 -4 -3 -13 2 -20 10 -17 20 -29 19 -49 -7
-15 -18 -19 -19 -24 -5 -4 11 -2 14 9 10 7 -3 14 -1 14 4 0 5 -13 9 -30 8 -18
0 -30 -5 -30 -13 0 -7 5 -10 10 -7 6 3 10 2 10 -4 0 -5 -9 -9 -19 -8 -10 0
-17 6 -14 13 3 8 -11 13 -41 16 -25 2 -46 0 -46 -4 0 -5 -5 -8 -11 -8 -5 0 -8
3 -6 8 3 4 -19 7 -49 7 -40 0 -53 -3 -51 -14 1 -8 -4 -16 -12 -19 -10 -3 -13
1 -9 14 4 17 -1 19 -49 19 -58 0 -75 -19 -18 -21 21 -1 32 3 28 9 -3 6 -1 7 5
3 29 -18 1 -21 -160 -21 -95 1 -178 -3 -184 -7 -6 -4 -18 -2 -28 5 -14 10 -3
12 61 11 43 0 84 4 91 9 7 6 12 6 12 0 0 -5 11 -9 24 -9 17 0 22 4 18 15 -4
10 -7 11 -10 3 -2 -8 -9 -9 -21 -3 -10 6 -23 6 -31 1 -8 -5 -19 -6 -24 -2 -17
10 -56 11 -56 1 0 -5 -5 -9 -11 -9 -5 0 -7 6 -3 13 5 8 2 8 -9 -2 -9 -7 -17
-10 -17 -5 0 5 -46 10 -103 10 -150 2 -187 6 -187 21 0 7 -6 13 -12 13 -7 0
-24 3 -37 7 -19 5 -22 3 -16 -8 6 -11 5 -12 -6 -2 -7 7 -21 13 -31 13 -12 0
-16 5 -11 18 6 15 4 15 -18 -3 -13 -11 -18 -13 -11 -5 15 18 15 28 0 27 -7 0
-26 1 -42 1 -24 2 -27 4 -16 17 13 16 9 18 -33 18 -9 0 -17 4 -17 9 0 6 -7 7
-15 4 -11 -4 -15 0 -13 11 3 15 -8 19 -64 25 -12 2 -14 7 -7 19 7 14 4 17 -20
15 -23 -2 -28 2 -27 19 1 14 -5 20 -19 20 -13 0 -20 7 -20 20 -1 11 -7 19 -14
17 -12 -2 -40 20 -44 35 -1 4 -8 7 -15 7 -8 -1 -12 7 -10 20 2 13 -2 20 -10
18 -7 -1 -20 4 -28 13 -12 12 -12 15 -2 16 10 0 10 2 0 6 -6 2 -10 8 -7 13 3
4 -3 7 -13 6 -10 0 -16 6 -16 17 2 17 -5 20 -36 18 -10 0 -11 1 -3 5 10 4 10
11 2 26 -6 11 -9 28 -6 38 5 20 -9 50 -24 50 -6 0 -3 -7 6 -16 13 -13 14 -19
4 -25 -7 -4 -18 -5 -23 -2 -6 4 -5 8 2 11 9 3 8 9 -2 24 -8 11 -12 27 -9 36 5
11 2 14 -10 9 -16 -6 -22 4 -18 27 1 4 -4 15 -11 24 -10 12 -10 14 0 8 15 -9
16 6 0 22 -9 9 -9 12 2 12 8 1 3 7 -11 15 -21 11 -26 21 -24 50 1 19 -2 35 -6
35 -8 0 -4 33 6 50 3 6 1 10 -5 10 -6 0 -9 4 -6 9 3 5 -1 12 -9 15 -13 4 -13
2 -5 -14 13 -24 13 -27 -3 -33 -9 -3 -12 10 -12 52 1 40 5 55 14 53 7 -1 10 2
6 8 -3 6 -10 8 -15 5 -5 -3 -8 60 -7 140 l1 145 24 0 c13 0 20 4 17 10 -4 6
-12 7 -18 3 -7 -4 -5 4 3 17 9 15 15 46 15 77 0 30 3 49 9 46 5 -4 7 1 2 12
-5 15 -4 16 8 6 19 -16 23 -5 21 46 -2 41 -1 42 16 22 l18 -21 -2 21 c-1 12
-5 21 -9 21 -4 0 -8 5 -8 11 0 5 5 7 10 4 6 -3 11 -1 11 4 1 6 3 16 4 21 1 6
3 14 4 20 0 5 7 9 14 7 6 -1 11 6 11 16 -1 9 2 17 8 17 5 0 6 5 3 10 -3 6 -1
10 4 10 6 0 11 7 11 15 0 8 6 14 12 12 8 -1 13 9 12 25 0 19 3 24 11 18 12
-10 30 -1 31 18 3 33 4 34 21 21 11 -10 14 -10 9 -1 -4 7 -2 12 4 12 6 0 8 5
5 10 -11 18 5 32 22 19 12 -11 14 -10 13 2 -4 28 0 40 12 33 8 -5 9 -2 5 9 -3
9 -1 19 5 23 6 4 8 3 5 -2 -3 -6 -2 -16 4 -24 7 -12 9 -10 9 8 0 19 9 26 32
24 3 -1 9 6 12 14 5 12 2 15 -10 10 -14 -5 -15 -4 -5 8 6 8 20 12 30 9 9 -2
23 3 31 12 11 13 10 14 -6 8 -16 -6 -17 -5 -4 9 8 8 21 13 28 10 8 -3 18 1 23
9 7 11 9 11 9 1 0 -7 5 -10 10 -7 8 5 8 11 1 19 -12 14 -13 13 51 19 43 4 56
12 33 21 -9 3 -13 2 -10 -4 3 -6 1 -10 -4 -10 -26 0 -9 27 17 28 50 1 86 18
75 35 -2 4 6 7 19 7 13 0 30 6 37 13 9 7 11 7 8 1 -5 -8 2 -11 17 -10 13 0 23
3 21 6 -9 15 15 29 53 31 32 2 46 9 58 26 8 13 18 21 23 19 4 -3 8 1 8 9 0 8
-4 12 -9 9 -4 -3 -8 2 -8 11 0 9 -4 14 -9 11 -4 -3 -6 6 -3 21 l5 26 13 -29
13 -29 -5 33 c-2 19 0 32 6 32 6 0 8 5 4 12 -9 15 -14 69 -5 64 4 -3 7 4 7 15
0 10 -4 19 -9 19 -6 0 -6 5 0 13 5 6 8 31 7 55 -1 32 3 45 17 53 10 5 16 16
13 23 -3 8 0 17 5 21 6 3 8 11 5 17 -4 6 0 14 7 19 10 6 11 9 2 9 -7 0 -13 5
-13 10 0 6 9 10 20 10 20 0 24 10 22 60 l-1 25 13 -24 c8 -14 16 -19 20 -13 3
6 1 12 -6 14 -9 3 -8 9 4 22 10 9 15 23 12 31 -4 10 0 12 15 8 16 -4 21 -1 21
16 0 14 6 21 20 21 13 0 20 7 20 19 0 10 8 25 17 32 11 10 14 10 9 2 -4 -7 -2
-13 3 -13 10 0 12 6 10 28 0 4 10 10 23 13 14 3 22 12 22 22 -1 12 6 17 22 17
13 0 25 -1 27 -2 6 -6 35 27 30 35 -2 4 6 8 19 8 31 2 40 4 61 13 15 7 16 11
5 17 -12 8 0 10 131 13 27 1 45 6 47 14 1 7 0 8 -2 3 -3 -5 -14 -7 -24 -4 -35
9 -22 19 25 20 31 1 43 -3 38 -11 -3 -6 -1 -6 8 2 19 18 35 15 46 -10 8 -19
10 -20 16 -4 4 10 3 15 -3 11 -6 -3 -10 -2 -10 4 0 5 9 9 19 8 11 0 17 -5 15
-9 -3 -4 0 -8 6 -8 6 0 8 -6 4 -12 -4 -8 -3 -10 2 -5 5 5 9 13 9 19 0 6 8 12
18 14 11 1 16 0 13 -3 -3 -3 1 -12 9 -19 15 -16 29 -19 21 -5 -7 10 13 9 30
-1 5 -4 31 -8 57 -9 37 -2 44 -5 35 -16 -9 -11 -3 -17 15 -12 1 0 14 -4 30
-10 18 -7 27 -7 27 0 0 6 4 8 10 4 5 -3 7 -12 4 -19 -3 -8 0 -17 7 -22 8 -4
10 -3 5 4 -4 7 -2 12 3 12 6 0 11 -4 11 -9 0 -5 12 -11 28 -13 15 -2 27 -8 27
-15 0 -18 11 -24 44 -25 23 -1 30 -5 29 -17 -2 -10 4 -16 16 -16 10 0 22 -10
27 -22 6 -16 14 -21 29 -18 16 3 20 0 16 -10 -3 -8 -1 -15 4 -15 6 0 10 5 10
10 0 6 7 10 16 10 13 0 14 -3 4 -15 -10 -12 -9 -16 4 -21 9 -3 25 -4 36 -1 14
4 20 0 21 -11 0 -11 4 -8 11 8 6 14 12 27 12 30 1 3 5 11 10 19 6 10 5 12 -2
7 -7 -4 -12 -1 -12 9 0 11 5 15 15 11 8 -3 15 -1 15 5 0 6 6 7 13 3 9 -6 9 -4
-1 8 -8 10 -9 19 -3 22 5 4 8 19 5 34 -3 17 -1 22 4 14 7 -10 13 -5 25 19 8
18 13 38 10 43 -4 5 1 7 10 3 9 -3 16 -3 16 1 -1 4 0 9 1 12 5 15 11 47 11 63
0 10 8 17 20 17 18 0 23 10 20 36 -1 7 6 11 15 10 9 0 18 6 20 14 1 8 6 26 9
40 3 14 7 30 9 37 1 7 6 16 11 20 4 4 6 3 2 -2 -3 -6 -2 -17 2 -24 6 -9 11 -1
15 24 4 20 15 39 24 43 9 4 17 14 17 22 0 8 10 16 22 18 19 3 21 6 13 23 -6
10 -7 20 -3 20 4 1 15 2 23 3 8 0 17 12 20 25 3 14 12 26 20 29 13 3 13 2 0
-7 -17 -12 -10 -14 15 -5 13 5 14 9 3 15 -11 7 -10 11 2 18 8 5 17 8 21 5 4
-2 12 10 18 27 10 28 13 30 28 18 11 -10 14 -10 9 -1 -4 7 -2 12 4 12 6 0 8 5
5 10 -6 9 8 14 28 11 4 0 7 11 7 25 0 22 2 25 15 14 11 -9 15 -9 15 -1 0 7 4
10 9 6 6 -3 8 4 6 15 -3 16 1 20 21 20 18 0 24 5 24 23 1 22 1 22 16 -3 14
-23 14 -23 9 -2 -6 22 5 28 43 23 10 -2 11 2 2 18 -10 19 -8 21 22 23 18 0 42
1 53 0 11 0 14 2 7 4 -6 3 -9 10 -6 16 4 6 -2 5 -15 -1 -17 -10 -20 -9 -15 3
3 9 9 15 12 14 39 -5 70 5 80 25 10 18 11 19 9 3 -1 -10 5 -21 13 -23 11 -3
11 -2 3 4 -16 12 1 38 20 30 13 -5 32 16 29 33 -1 6 47 13 91 12 20 0 27 5 25
16 -2 10 5 17 17 18 123 11 141 16 110 28 -11 4 -14 2 -9 -7 5 -9 4 -9 -6 0
-7 6 -20 9 -29 6 -9 -4 -13 -2 -8 2 7 8 73 14 170 16 20 0 35 4 32 10 -4 5 -1
9 4 9 6 0 11 -3 11 -8 0 -4 16 -7 35 -8 25 -1 34 3 31 12 -2 6 -3 14 -1 16 3
2 71 5 152 6 127 1 148 -1 161 -16z m142 7 c0 -3 -9 -9 -19 -12 -13 -3 -18 0
-15 7 5 13 34 18 34 5z m-1900 -133 c0 -3 -4 -8 -10 -11 -5 -3 -10 -1 -10 4 0
6 5 11 10 11 6 0 10 -2 10 -4z m-660 -161 c0 -2 -6 -5 -13 -8 -8 -3 -14 1 -14
8 0 7 6 11 14 8 7 -3 13 -6 13 -8z m140 5 c8 -5 11 -10 5 -10 -5 0 -17 5 -25
10 -8 5 -10 10 -5 10 6 0 17 -5 25 -10z m-443 -47 c0 -9 -4 -10 -14 -2 -7 6
-13 12 -13 14 0 1 6 2 13 2 8 0 14 -6 14 -14z m703 13 c0 -2 -8 -10 -17 -17
-16 -13 -17 -12 -4 4 13 16 21 21 21 13z m3725 -5 c3 -5 1 -12 -5 -16 -5 -3
-10 1 -10 9 0 18 6 21 15 7z m-4543 -38 c-6 -2 -9 -10 -6 -15 4 -7 2 -8 -5 -4
-13 9 -5 26 12 25 9 0 8 -2 -1 -6z m4659 -170 c-12 -20 -14 -14 -5 12 4 9 9
14 11 11 3 -2 0 -13 -6 -23z m-3156 7 c3 -6 -1 -7 -9 -4 -18 7 -21 14 -7 14 6
0 13 -4 16 -10z m-1895 -84 c0 -3 -4 -8 -10 -11 -5 -3 -10 -1 -10 4 0 6 5 11
10 11 6 0 10 -2 10 -4z m4440 -31 c0 -2 -7 -5 -15 -9 -9 -3 -15 0 -15 9 0 9 6
12 15 9 8 -4 15 -7 15 -9z m-2703 -120 c0 -8 -4 -12 -9 -9 -4 3 -8 9 -8 15 0
5 4 9 8 9 5 0 9 -7 9 -15z m2813 -74 c0 -6 -4 -13 -10 -16 -5 -3 -10 1 -10 9
0 9 5 16 10 16 6 0 10 -4 10 -9z m-3827 -44 c3 -8 -1 -14 -8 -14 -7 0 -11 6
-8 14 3 7 6 13 8 13 2 0 5 -6 8 -13z m4497 -11 c0 -11 -19 -15 -25 -6 -3 5 1
10 9 10 9 0 16 -2 16 -4z m-4640 -26 c0 -5 -5 -10 -11 -10 -5 0 -7 5 -4 10 3
6 8 10 11 10 2 0 4 -4 4 -10z m835 -159 c3 -5 2 -12 -3 -15 -5 -3 -9 1 -9 9 0
17 3 19 12 6z m-1246 -274 c8 -10 7 -14 -2 -14 -8 0 -14 6 -14 14 0 7 1 13 2
13 2 0 8 -6 14 -13z m5371 -81 c0 -2 -8 -10 -17 -17 -16 -13 -17 -12 -4 4 13
16 21 21 21 13z m-5404 -152 c3 -16 2 -26 -1 -23 -3 4 -8 19 -11 35 -3 16 -2
26 1 23 3 -4 8 -19 11 -35z m-1066 -102 c0 -13 -12 -22 -22 -16 -10 6 -1 24
13 24 5 0 9 -4 9 -8z m1055 -1 c3 -5 2 -12 -3 -15 -5 -3 -9 1 -9 9 0 17 3 19
12 6z m-48 -43 c-3 -8 -6 -5 -6 6 -1 11 2 17 5 13 3 -3 4 -12 1 -19z m4788
-148 c3 -5 1 -10 -4 -10 -6 0 -11 5 -11 10 0 6 2 10 4 10 3 0 8 -4 11 -10z
m255 -44 c-15 -15 -39 -16 -33 -1 2 8 13 13 24 12 12 -1 15 -5 9 -11z m124
-34 c2 -4 -4 -9 -15 -9 -10 -1 -19 2 -19 8 0 11 27 12 34 1z m1171 -582 c3 -5
1 -10 -4 -10 -6 0 -11 5 -11 10 0 6 2 10 4 10 3 0 8 -4 11 -10z m-7172 -25
c-3 -9 -8 -14 -10 -11 -3 3 -2 9 2 15 9 16 15 13 8 -4z m6622 -355 c-3 -5 -12
-10 -18 -10 -7 0 -6 4 3 10 19 12 23 12 15 0z m-6584 -223 c-10 -9 -11 -8 -5
6 3 10 9 15 12 12 3 -3 0 -11 -7 -18z m7099 -171 c0 -2 -7 -9 -15 -16 -13 -11
-14 -10 -9 4 5 14 24 23 24 12z m-7604 -115 c-4 -5 -1 -11 6 -13 8 -3 6 -6 -4
-10 -11 -5 -15 -2 -13 10 5 23 4 22 11 22 3 0 3 -4 0 -9z m6805 -114 c-10 -9
-11 -8 -5 6 3 10 9 15 12 12 3 -3 0 -11 -7 -18z m-186 -146 c-9 -8 -36 -10
-30 -2 2 4 11 8 20 8 8 0 13 -3 10 -6z m-357 -126 c-3 -3 -9 2 -12 12 -6 14
-5 15 5 6 7 -7 10 -15 7 -18z m-5023 5 c3 -5 1 -10 -4 -10 -6 0 -11 5 -11 10
0 6 2 10 4 10 3 0 8 -4 11 -10z m1025 -24 c0 -2 -7 -9 -15 -16 -13 -11 -14
-10 -9 4 5 14 24 23 24 12z m135 -6 c3 -5 1 -10 -4 -10 -6 0 -11 5 -11 10 0 6
2 10 4 10 3 0 8 -4 11 -10z m394 -13 c0 -9 -2 -8 -6 1 -2 6 -10 9 -15 6 -7 -4
-8 -2 -4 5 9 13 26 5 25 -12z m46 13 c3 -5 1 -10 -4 -10 -6 0 -11 5 -11 10 0
6 2 10 4 10 3 0 8 -4 11 -10z m185 0 c0 -5 -5 -10 -11 -10 -5 0 -7 5 -4 10 3
6 8 10 11 10 2 0 4 -4 4 -10z m-1036 -8 c3 -5 -1 -9 -9 -9 -8 0 -15 4 -15 9 0
4 4 8 9 8 6 0 12 -4 15 -8z m40 -4 c-3 -4 -9 -8 -15 -8 -5 0 -9 4 -9 8 0 5 7
9 15 9 8 0 12 -4 9 -9z m76 6 c0 -8 -19 -13 -24 -6 -3 5 1 9 9 9 8 0 15 -2 15
-3z m-35 -14 c3 -6 -1 -7 -9 -4 -18 7 -21 14 -7 14 6 0 13 -4 16 -10z m282 4
c-3 -3 -12 -4 -19 -1 -8 3 -5 6 6 6 11 1 17 -2 13 -5z m4533 -344 c0 -5 -4
-10 -10 -10 -5 0 -10 5 -10 10 0 6 5 10 10 10 6 0 10 -4 10 -10z m-6030 -74
c0 -3 -4 -8 -10 -11 -5 -3 -10 -1 -10 4 0 6 5 11 10 11 6 0 10 -2 10 -4z
m5750 -46 c0 -5 -5 -10 -11 -10 -5 0 -7 5 -4 10 3 6 8 10 11 10 2 0 4 -4 4
-10z m-646 -78 c3 -5 -1 -9 -9 -9 -8 0 -12 4 -9 9 3 4 7 8 9 8 2 0 6 -4 9 -8z
m41 -2 c3 -5 1 -10 -4 -10 -6 0 -11 5 -11 10 0 6 2 10 4 10 3 0 8 -4 11 -10z
m80 0 c3 -5 1 -10 -4 -10 -6 0 -11 5 -11 10 0 6 2 10 4 10 3 0 8 -4 11 -10z
m-4478 -34 c0 -7 -9 -12 -21 -11 -12 0 -28 -4 -36 -9 -13 -10 -13 -9 -1 7 8
10 20 16 28 13 7 -3 13 -1 13 4 0 6 4 10 8 10 5 0 9 -6 9 -14z m56 -5 c-5 -13
-3 -14 8 -3 16 15 39 16 39 1 0 -6 -6 -9 -14 -6 -7 3 -18 1 -24 -5 -8 -8 -13
-7 -18 6 -5 13 -9 14 -20 5 -9 -7 -14 -8 -14 -1 0 6 6 12 13 15 24 8 35 3 30
-12z m124 -3 c-3 -8 -6 -5 -6 6 -1 11 2 17 5 13 3 -3 4 -12 1 -19z"/>
<path d="M4910 6419 c0 -5 5 -7 10 -4 6 3 10 8 10 11 0 2 -4 4 -10 4 -5 0 -10
-5 -10 -11z"/>
<path d="M4948 6423 c7 -3 16 -2 19 1 4 3 -2 6 -13 5 -11 0 -14 -3 -6 -6z"/>
<path d="M4427 6313 c-10 -9 -9 -23 1 -23 5 0 9 7 9 15 0 17 -1 18 -10 8z"/>
<path d="M5807 6266 c-4 -10 -1 -13 8 -9 8 3 12 9 9 14 -7 12 -11 11 -17 -5z"/>
<path d="M2906 5545 c4 -8 11 -15 16 -15 6 0 5 6 -2 15 -7 8 -14 15 -16 15 -2
0 -1 -7 2 -15z"/>
<path d="M3046 5503 c-6 -14 -5 -15 5 -6 7 7 10 15 7 18 -3 3 -9 -2 -12 -12z"/>
<path d="M3290 5390 c-9 -6 -10 -10 -3 -10 6 0 15 5 18 10 8 12 4 12 -15 0z"/>
<path d="M6653 5035 c0 -13 3 -22 8 -20 9 6 8 45 -2 45 -4 0 -6 -11 -6 -25z"/>
<path d="M2140 5039 c0 -5 5 -7 10 -4 6 3 10 8 10 11 0 2 -4 4 -10 4 -5 0 -10
-5 -10 -11z"/>
<path d="M6653 4735 c0 -8 4 -12 9 -9 5 3 6 10 3 15 -9 13 -12 11 -12 -6z"/>
<path d="M1880 4620 c-9 -6 -10 -10 -3 -10 6 0 15 5 18 10 8 12 4 12 -15 0z"/>
<path d="M6650 4580 c0 -5 5 -10 11 -10 5 0 7 5 4 10 -3 6 -8 10 -11 10 -2 0
-4 -4 -4 -10z"/>
<path d="M7735 3949 c-4 -6 -4 -13 -1 -16 3 -4 6 -1 6 6 0 7 5 9 12 5 7 -4 8
-3 4 4 -9 15 -13 15 -21 1z"/>
<path d="M1210 3746 c0 -2 7 -7 16 -10 8 -3 12 -2 9 4 -6 10 -25 14 -25 6z"/>
<path d="M1220 3525 c0 -8 4 -15 10 -15 5 0 7 7 4 15 -4 8 -8 15 -10 15 -2 0
-4 -7 -4 -15z"/>
<path d="M7760 3345 c0 -2 6 -8 13 -14 10 -8 14 -7 14 2 0 8 -6 14 -14 14 -7
0 -13 -1 -13 -2z"/>
<path d="M1385 3080 c3 -5 8 -10 11 -10 2 0 4 5 4 10 0 6 -5 10 -11 10 -5 0
-7 -4 -4 -10z"/>
<path d="M1620 2840 c0 -5 5 -10 11 -10 5 0 7 5 4 10 -3 6 -8 10 -11 10 -2 0
-4 -4 -4 -10z"/>
<path d="M1671 2804 c0 -11 3 -14 6 -6 3 7 2 16 -1 19 -3 4 -6 -2 -5 -13z"/>
<path d="M2031 2644 c0 -11 3 -14 6 -6 3 7 2 16 -1 19 -3 4 -6 -2 -5 -13z"/>
<path d="M6915 2649 c-4 -6 -5 -12 -2 -15 2 -3 7 2 10 11 7 17 1 20 -8 4z"/>
<path d="M6720 2640 c-9 -6 -10 -10 -3 -10 6 0 15 5 18 10 8 12 4 12 -15 0z"/>
<path d="M2486 2605 c6 -14 62 -15 67 -1 3 7 -9 11 -33 11 -21 0 -36 -4 -34
-10z"/>
<path d="M5374 7039 c-2 -4 0 -10 5 -13 5 -4 13 -1 17 5 5 8 8 8 14 -1 5 -9 9
-8 13 2 3 10 -3 14 -20 14 -13 0 -26 -3 -29 -7z"/>
<path d="M5610 7006 c0 -3 9 -10 20 -16 11 -6 20 -8 20 -6 0 3 -9 10 -20 16
-11 6 -20 8 -20 6z"/>
<path d="M4405 6960 c-3 -5 -1 -10 4 -10 6 0 11 5 11 10 0 6 -2 10 -4 10 -3 0
-8 -4 -11 -10z"/>
<path d="M4301 6914 c0 -11 3 -14 6 -6 3 7 2 16 -1 19 -3 4 -6 -2 -5 -13z"/>
<path d="M5973 6873 c0 -9 4 -10 14 -2 7 6 13 12 13 14 0 1 -6 2 -13 2 -8 0
-14 -6 -14 -14z"/>
<path d="M3770 6635 c0 -8 4 -15 10 -15 5 0 7 7 4 15 -4 8 -8 15 -10 15 -2 0
-4 -7 -4 -15z"/>
<path d="M3526 6441 c-3 -5 1 -11 9 -15 8 -3 15 -1 15 4 0 13 -18 22 -24 11z"/>
<path d="M3373 6275 c0 -8 4 -15 9 -15 4 0 8 4 8 9 0 6 -4 12 -8 15 -5 3 -9
-1 -9 -9z"/>
<path d="M2651 6163 c-1 -6 3 -14 7 -17 12 -7 38 12 29 21 -5 4 -12 1 -16 -6
-7 -11 -10 -11 -14 0 -3 9 -6 10 -6 2z"/>
<path d="M2991 6163 c-1 -6 3 -14 7 -17 12 -7 38 12 29 21 -5 4 -12 1 -16 -6
-7 -11 -10 -11 -14 0 -3 9 -6 10 -6 2z"/>
<path d="M3247 6116 c-4 -10 -1 -13 8 -9 8 3 12 9 9 14 -7 12 -11 11 -17 -5z"/>
<path d="M2045 5920 c-3 -5 -2 -10 4 -10 5 0 13 5 16 10 3 6 2 10 -4 10 -5 0
-13 -4 -16 -10z"/>
<path d="M7149 5673 c-13 -16 -12 -17 4 -4 16 13 21 21 13 21 -2 0 -10 -8 -17
-17z"/>
<path d="M1691 5554 c0 -11 3 -14 6 -6 3 7 2 16 -1 19 -3 4 -6 -2 -5 -13z"/>
<path d="M1605 5399 c-9 -14 -2 -20 14 -10 8 6 9 11 3 15 -6 3 -14 1 -17 -5z"/>
<path d="M1523 5153 c0 -9 4 -10 14 -2 7 6 13 12 13 14 0 1 -6 2 -13 2 -8 0
-14 -6 -14 -14z"/>
<path d="M7426 5033 c-6 -14 -5 -15 5 -6 7 7 10 15 7 18 -3 3 -9 -2 -12 -12z"/>
<path d="M1170 4915 c0 -8 4 -15 8 -15 5 0 9 7 9 15 0 8 -4 15 -9 15 -4 0 -8
-7 -8 -15z"/>
<path d="M815 4479 c-4 -6 -5 -12 -2 -15 2 -3 7 2 10 11 7 17 1 20 -8 4z"/>
<path d="M727 4326 c-3 -8 -2 -18 3 -21 13 -8 20 9 11 24 -6 10 -10 9 -14 -3z"/>
<path d="M657 4103 c-4 -3 -7 -11 -7 -17 0 -6 5 -5 12 2 6 6 9 14 7 17 -3 3
-9 2 -12 -2z"/>
<path d="M606 3962 c-3 -5 1 -9 9 -9 8 0 12 4 9 9 -3 4 -7 8 -9 8 -2 0 -6 -4
-9 -8z"/>
<path d="M8425 3661 c-3 -5 -2 -12 3 -15 5 -3 9 1 9 9 0 17 -3 19 -12 6z"/>
<path d="M8417 3623 c-4 -6 0 -18 7 -29 16 -21 10 -48 -8 -37 -8 5 -8 3 0 -8
7 -8 14 -23 17 -34 3 -12 5 -9 4 10 0 17 2 36 6 42 4 6 3 14 -3 18 -6 4 -8 10
-6 14 3 4 1 13 -3 20 -5 8 -11 9 -14 4z"/>
<path d="M8416 3482 c-3 -5 1 -9 9 -9 8 0 12 4 9 9 -3 4 -7 8 -9 8 -2 0 -6 -4
-9 -8z"/>
<path d="M8306 2985 c4 -8 8 -15 10 -15 2 0 4 7 4 15 0 8 -4 15 -10 15 -5 0
-7 -7 -4 -15z"/>
<path d="M7387 2109 c7 -7 15 -10 18 -7 3 3 -2 9 -12 12 -14 6 -15 5 -6 -5z"/>
<path d="M7030 2030 c0 -5 5 -10 11 -10 5 0 7 5 4 10 -3 6 -8 10 -11 10 -2 0
-4 -4 -4 -10z"/>
<path d="M2730 2005 c0 -5 5 -17 10 -25 9 -13 10 -13 10 0 0 13 1 13 10 0 5
-8 10 -10 10 -5 0 6 -5 17 -10 25 -9 13 -10 13 -10 0 0 -13 -1 -13 -10 0 -5 8
-10 11 -10 5z"/>
<path d="M2970 1999 c0 -6 -7 -8 -17 -4 -14 5 -15 4 -6 -6 10 -10 15 -9 28 1
10 8 15 9 15 1 0 -6 5 -11 11 -11 8 0 8 5 -1 15 -15 18 -30 20 -30 4z"/>
<path d="M3312 1994 c-7 -8 -8 -14 -3 -14 10 0 25 19 20 25 -2 1 -10 -3 -17
-11z"/>
<path d="M3410 2000 c0 -5 5 -10 11 -10 5 0 7 5 4 10 -3 6 -8 10 -11 10 -2 0
-4 -4 -4 -10z"/>
<path d="M3460 2000 c-9 -6 -10 -10 -3 -10 6 0 15 5 18 10 8 12 4 12 -15 0z"/>
<path d="M3550 2001 c0 -10 19 -25 25 -20 1 2 -3 10 -11 17 -8 7 -14 8 -14 3z"/>
<path d="M3593 1995 c0 -8 4 -12 9 -9 5 3 6 10 3 15 -9 13 -12 11 -12 -6z"/>
<path d="M3625 2001 c-3 -5 -2 -12 3 -15 5 -3 9 1 9 9 0 17 -3 19 -12 6z"/>
<path d="M2895 1990 c-3 -5 -1 -10 4 -10 6 0 11 5 11 10 0 6 -2 10 -4 10 -3 0
-8 -4 -11 -10z"/>
<path d="M3047 1989 c7 -7 15 -10 18 -7 3 3 -2 9 -12 12 -14 6 -15 5 -6 -5z"/>
<path d="M3210 1995 c0 -7 30 -13 34 -7 3 4 -4 9 -15 9 -10 1 -19 0 -19 -2z"/>
<path d="M2190 1986 c0 -2 7 -7 16 -10 8 -3 12 -2 9 4 -6 10 -25 14 -25 6z"/>
</g>
</svg>
